<svg width="228" height="274" viewBox="0 0 228 274" fill="none" xmlns="http://www.w3.org/2000/svg">
<g filter="url(#filter0_d_10_198)">
<rect x="25" y="21" width="178" height="224" rx="10" fill="#FAFAFA"/>
<path d="M114 134.708C117.172 134.708 120.213 136.03 122.456 138.382C124.698 140.734 125.958 143.924 125.958 147.25C125.958 150.576 124.698 153.766 122.456 156.118C120.213 158.47 117.172 159.792 114 159.792C110.828 159.792 107.787 158.47 105.544 156.118C103.302 153.766 102.042 150.576 102.042 147.25C102.042 143.924 103.302 140.734 105.544 138.382C107.787 136.03 110.828 134.708 114 134.708ZM90.0833 143.667C91.9967 143.667 93.7733 144.204 95.3108 145.172C94.7983 150.296 96.2333 155.384 99.1717 159.362C97.4633 162.802 94.0467 165.167 90.0833 165.167C87.3649 165.167 84.7577 164.034 82.8355 162.018C80.9132 160.002 79.8333 157.268 79.8333 154.417C79.8333 151.566 80.9132 148.831 82.8355 146.815C84.7577 144.799 87.3649 143.667 90.0833 143.667ZM137.917 143.667C140.635 143.667 143.242 144.799 145.165 146.815C147.087 148.831 148.167 151.566 148.167 154.417C148.167 157.268 147.087 160.002 145.165 162.018C143.242 164.034 140.635 165.167 137.917 165.167C133.953 165.167 130.537 162.802 128.828 159.362C131.767 155.384 133.202 150.296 132.689 145.172C134.227 144.204 136.003 143.667 137.917 143.667ZM91.7917 180.396C91.7917 172.978 101.734 166.958 114 166.958C126.266 166.958 136.208 172.978 136.208 180.396V186.667H91.7917V180.396ZM73 186.667V181.292C73 176.311 79.4575 172.118 88.2042 170.9C86.1883 173.337 84.9583 176.705 84.9583 180.396V186.667H73ZM155 186.667H143.042V180.396C143.042 176.705 141.812 173.337 139.796 170.9C148.542 172.118 155 176.311 155 181.292V186.667Z" fill="#1C778B"/>
<path d="M78.5117 85.2832H81.4316C81.373 86.2402 81.1094 87.0898 80.6406 87.832C80.1784 88.5742 79.5306 89.1536 78.6973 89.5703C77.8704 89.987 76.8743 90.1953 75.709 90.1953C74.7975 90.1953 73.9805 90.0391 73.2578 89.7266C72.5352 89.4076 71.9167 88.9518 71.4023 88.3594C70.8945 87.7669 70.5072 87.0508 70.2402 86.2109C69.9733 85.3711 69.8398 84.4303 69.8398 83.3887V82.4023C69.8398 81.3607 69.9766 80.4199 70.25 79.5801C70.5299 78.7337 70.9271 78.0143 71.4414 77.4219C71.9622 76.8294 72.584 76.3737 73.3066 76.0547C74.0293 75.7357 74.8366 75.5762 75.7285 75.5762C76.9134 75.5762 77.9128 75.791 78.7266 76.2207C79.5469 76.6504 80.1816 77.2428 80.6309 77.998C81.0866 78.7533 81.36 79.6126 81.4512 80.5762H78.5215C78.4889 80.0033 78.375 79.5182 78.1797 79.1211C77.9844 78.7174 77.6882 78.4147 77.291 78.2129C76.9004 78.0046 76.3796 77.9004 75.7285 77.9004C75.2402 77.9004 74.8138 77.9915 74.4492 78.1738C74.0846 78.3561 73.7786 78.6328 73.5312 79.0039C73.2839 79.375 73.0983 79.8438 72.9746 80.4102C72.8574 80.9701 72.7988 81.6276 72.7988 82.3828V83.3887C72.7988 84.1243 72.8542 84.7721 72.9648 85.332C73.0755 85.8854 73.2448 86.3542 73.4727 86.7383C73.707 87.1159 74.0065 87.4023 74.3711 87.5977C74.7422 87.7865 75.1882 87.8809 75.709 87.8809C76.321 87.8809 76.8255 87.7832 77.2227 87.5879C77.6198 87.3926 77.9225 87.1029 78.1309 86.7188C78.3457 86.3346 78.4727 85.8561 78.5117 85.2832ZM92.4961 87.7148V90H85.3379V87.7148H92.4961ZM86.2852 75.7812V90H83.3555V75.7812H86.2852ZM97.291 75.7812V90H94.3711V75.7812H97.291ZM109.576 87.7148V90H102.008V87.7148H109.576ZM102.965 75.7812V90H100.035V75.7812H102.965ZM108.59 81.5723V83.7988H102.008V81.5723H108.59ZM109.566 75.7812V78.0762H102.008V75.7812H109.566ZM122.857 75.7812V90H119.928L114.215 80.4688V90H111.285V75.7812H114.215L119.938 85.3223V75.7812H122.857ZM131.471 75.7812V90H128.551V75.7812H131.471ZM135.846 75.7812V78.0762H124.244V75.7812H135.846ZM147.057 87.7148V90H139.488V87.7148H147.057ZM140.445 75.7812V90H137.516V75.7812H140.445ZM146.07 81.5723V83.7988H139.488V81.5723H146.07ZM147.047 75.7812V78.0762H139.488V75.7812H147.047ZM156.168 86.2793C156.168 86.0254 156.129 85.7975 156.051 85.5957C155.979 85.3874 155.842 85.1986 155.641 85.0293C155.439 84.8535 155.156 84.681 154.791 84.5117C154.426 84.3424 153.954 84.1667 153.375 83.9844C152.73 83.776 152.118 83.5417 151.539 83.2812C150.966 83.0208 150.458 82.7181 150.016 82.373C149.579 82.0215 149.234 81.6146 148.98 81.1523C148.733 80.6901 148.609 80.153 148.609 79.541C148.609 78.9486 148.74 78.4115 149 77.9297C149.26 77.4414 149.625 77.0247 150.094 76.6797C150.562 76.3281 151.116 76.0579 151.754 75.8691C152.398 75.6803 153.105 75.5859 153.873 75.5859C154.921 75.5859 155.836 75.7747 156.617 76.1523C157.398 76.5299 158.004 77.0475 158.434 77.7051C158.87 78.3626 159.088 79.1146 159.088 79.9609H156.178C156.178 79.5443 156.09 79.1797 155.914 78.8672C155.745 78.5482 155.484 78.2975 155.133 78.1152C154.788 77.9329 154.352 77.8418 153.824 77.8418C153.316 77.8418 152.893 77.9199 152.555 78.0762C152.216 78.2259 151.962 78.431 151.793 78.6914C151.624 78.9453 151.539 79.2318 151.539 79.5508C151.539 79.7917 151.598 80.0098 151.715 80.2051C151.839 80.4004 152.021 80.5827 152.262 80.752C152.503 80.9212 152.799 81.0807 153.15 81.2305C153.502 81.3802 153.909 81.5267 154.371 81.6699C155.146 81.9043 155.826 82.168 156.412 82.4609C157.005 82.7539 157.499 83.0827 157.896 83.4473C158.294 83.8118 158.593 84.2253 158.795 84.6875C158.997 85.1497 159.098 85.6738 159.098 86.2598C159.098 86.8783 158.977 87.4316 158.736 87.9199C158.495 88.4082 158.147 88.8216 157.691 89.1602C157.236 89.4987 156.692 89.7559 156.061 89.9316C155.429 90.1074 154.723 90.1953 153.941 90.1953C153.238 90.1953 152.545 90.1042 151.861 89.9219C151.178 89.7331 150.556 89.4499 149.996 89.0723C149.443 88.6947 149 88.2129 148.668 87.627C148.336 87.041 148.17 86.3477 148.17 85.5469H151.109C151.109 85.9896 151.178 86.3639 151.314 86.6699C151.451 86.9759 151.643 87.2233 151.891 87.4121C152.145 87.6009 152.444 87.7376 152.789 87.8223C153.141 87.9069 153.525 87.9492 153.941 87.9492C154.449 87.9492 154.866 87.8776 155.191 87.7344C155.523 87.5911 155.768 87.3926 155.924 87.1387C156.087 86.8848 156.168 86.5983 156.168 86.2793Z" fill="#1C778B"/>
</g>
<defs>
<filter id="filter0_d_10_198" x="0" y="0" width="228" height="274" filterUnits="userSpaceOnUse" color-interpolation-filters="sRGB">
<feFlood flood-opacity="0" result="BackgroundImageFix"/>
<feColorMatrix in="SourceAlpha" type="matrix" values="0 0 0 0 0 0 0 0 0 0 0 0 0 0 0 0 0 0 127 0" result="hardAlpha"/>
<feOffset dy="4"/>
<feGaussianBlur stdDeviation="12.5"/>
<feComposite in2="hardAlpha" operator="out"/>
<feColorMatrix type="matrix" values="0 0 0 0 0.109804 0 0 0 0 0.466667 0 0 0 0 0.545098 0 0 0 0.25 0"/>
<feBlend mode="normal" in2="BackgroundImageFix" result="effect1_dropShadow_10_198"/>
<feBlend mode="normal" in="SourceGraphic" in2="effect1_dropShadow_10_198" result="shape"/>
</filter>
</defs>
</svg>
