<svg width="228" height="274" viewBox="0 0 228 274" fill="none" xmlns="http://www.w3.org/2000/svg">
<g filter="url(#filter0_d_156_1767)">
<rect x="25" y="21" width="178" height="224" rx="10" fill="#FAFAFA"/>
<path d="M88.3965 87.0312L91.7461 75.7812H95.0078L90.0566 90H87.9082L88.3965 87.0312ZM85.3105 75.7812L88.6504 87.0312L89.1582 90H86.9902L82.0684 75.7812H85.3105ZM105.877 87.7148V90H98.3086V87.7148H105.877ZM99.2656 75.7812V90H96.3359V75.7812H99.2656ZM104.891 81.5723V83.7988H98.3086V81.5723H104.891ZM105.867 75.7812V78.0762H98.3086V75.7812H105.867ZM119.158 75.7812V90H116.229L110.516 80.4688V90H107.586V75.7812H110.516L116.238 85.3223V75.7812H119.158ZM127.771 75.7812V90H124.852V75.7812H127.771ZM132.146 75.7812V78.0762H120.545V75.7812H132.146ZM138.543 78.2129L134.676 90H131.561L136.844 75.7812H138.826L138.543 78.2129ZM141.756 90L137.879 78.2129L137.566 75.7812H139.568L144.881 90H141.756ZM141.58 84.707V87.002H134.07V84.707H141.58Z" fill="#1C778B"/>
<path d="M135.158 143.368H100.421V126H135.158V143.368ZM142.105 157.263C130.607 157.263 121.263 166.607 121.263 178.105H90V153.789C90 149.968 93.0916 146.842 96.9474 146.842H138.632C142.487 146.842 145.579 149.968 145.579 153.789V157.576C144.433 157.402 143.286 157.263 142.105 157.263ZM110.842 153.789H96.9474V160.737H110.842V153.789ZM145.579 174.632V164.211H138.632V174.632H128.211V181.579H138.632V192H145.579V181.579H156V174.632H145.579Z" fill="#1C778B"/>
</g>
<defs>
<filter id="filter0_d_156_1767" x="0" y="0" width="228" height="274" filterUnits="userSpaceOnUse" color-interpolation-filters="sRGB">
<feFlood flood-opacity="0" result="BackgroundImageFix"/>
<feColorMatrix in="SourceAlpha" type="matrix" values="0 0 0 0 0 0 0 0 0 0 0 0 0 0 0 0 0 0 127 0" result="hardAlpha"/>
<feOffset dy="4"/>
<feGaussianBlur stdDeviation="12.5"/>
<feComposite in2="hardAlpha" operator="out"/>
<feColorMatrix type="matrix" values="0 0 0 0 0.109804 0 0 0 0 0.466667 0 0 0 0 0.545098 0 0 0 0.25 0"/>
<feBlend mode="normal" in2="BackgroundImageFix" result="effect1_dropShadow_156_1767"/>
<feBlend mode="normal" in="SourceGraphic" in2="effect1_dropShadow_156_1767" result="shape"/>
</filter>
</defs>
</svg>
