<svg width="228" height="274" viewBox="0 0 228 274" fill="none" xmlns="http://www.w3.org/2000/svg">
<g filter="url(#filter0_d_156_1777)">
<rect x="25" y="21" width="178" height="224" rx="10" fill="#FAFAFA"/>
<path d="M63.6074 75.7812H66.0879L69.7402 86.2207L73.3926 75.7812H75.873L70.7363 90H68.7441L63.6074 75.7812ZM62.2695 75.7812H64.7402L65.1895 85.957V90H62.2695V75.7812ZM74.7402 75.7812H77.2207V90H74.291V85.957L74.7402 75.7812ZM85.7461 78.2129L81.8789 90H78.7637L84.0469 75.7812H86.0293L85.7461 78.2129ZM88.959 90L85.082 78.2129L84.7695 75.7812H86.7715L92.084 90H88.959ZM88.7832 84.707V87.002H81.2734V84.707H88.7832ZM100.805 86.2793C100.805 86.0254 100.766 85.7975 100.688 85.5957C100.616 85.3874 100.479 85.1986 100.277 85.0293C100.076 84.8535 99.7923 84.681 99.4277 84.5117C99.0632 84.3424 98.5911 84.1667 98.0117 83.9844C97.3672 83.776 96.7552 83.5417 96.1758 83.2812C95.6029 83.0208 95.0951 82.7181 94.6523 82.373C94.2161 82.0215 93.8711 81.6146 93.6172 81.1523C93.3698 80.6901 93.2461 80.153 93.2461 79.541C93.2461 78.9486 93.3763 78.4115 93.6367 77.9297C93.8971 77.4414 94.2617 77.0247 94.7305 76.6797C95.1992 76.3281 95.7526 76.0579 96.3906 75.8691C97.0352 75.6803 97.7415 75.5859 98.5098 75.5859C99.5579 75.5859 100.473 75.7747 101.254 76.1523C102.035 76.5299 102.641 77.0475 103.07 77.7051C103.507 78.3626 103.725 79.1146 103.725 79.9609H100.814C100.814 79.5443 100.727 79.1797 100.551 78.8672C100.382 78.5482 100.121 78.2975 99.7695 78.1152C99.4245 77.9329 98.9883 77.8418 98.4609 77.8418C97.9531 77.8418 97.5299 77.9199 97.1914 78.0762C96.8529 78.2259 96.599 78.431 96.4297 78.6914C96.2604 78.9453 96.1758 79.2318 96.1758 79.5508C96.1758 79.7917 96.2344 80.0098 96.3516 80.2051C96.4753 80.4004 96.6576 80.5827 96.8984 80.752C97.1393 80.9212 97.4355 81.0807 97.7871 81.2305C98.1387 81.3802 98.5456 81.5267 99.0078 81.6699C99.7826 81.9043 100.463 82.168 101.049 82.4609C101.641 82.7539 102.136 83.0827 102.533 83.4473C102.93 83.8118 103.23 84.2253 103.432 84.6875C103.633 85.1497 103.734 85.6738 103.734 86.2598C103.734 86.8783 103.614 87.4316 103.373 87.9199C103.132 88.4082 102.784 88.8216 102.328 89.1602C101.872 89.4987 101.329 89.7559 100.697 89.9316C100.066 90.1074 99.3594 90.1953 98.5781 90.1953C97.875 90.1953 97.1816 90.1042 96.498 89.9219C95.8145 89.7331 95.1927 89.4499 94.6328 89.0723C94.0794 88.6947 93.6367 88.2129 93.3047 87.627C92.9727 87.041 92.8066 86.3477 92.8066 85.5469H95.7461C95.7461 85.9896 95.8145 86.3639 95.9512 86.6699C96.0879 86.9759 96.2799 87.2233 96.5273 87.4121C96.7812 87.6009 97.0807 87.7376 97.4258 87.8223C97.7773 87.9069 98.1615 87.9492 98.5781 87.9492C99.0859 87.9492 99.5026 87.8776 99.8281 87.7344C100.16 87.5911 100.404 87.3926 100.561 87.1387C100.723 86.8848 100.805 86.5983 100.805 86.2793ZM113.969 85.2832H116.889C116.83 86.2402 116.566 87.0898 116.098 87.832C115.635 88.5742 114.988 89.1536 114.154 89.5703C113.327 89.987 112.331 90.1953 111.166 90.1953C110.255 90.1953 109.438 90.0391 108.715 89.7266C107.992 89.4076 107.374 88.9518 106.859 88.3594C106.352 87.7669 105.964 87.0508 105.697 86.2109C105.43 85.3711 105.297 84.4303 105.297 83.3887V82.4023C105.297 81.3607 105.434 80.4199 105.707 79.5801C105.987 78.7337 106.384 78.0143 106.898 77.4219C107.419 76.8294 108.041 76.3737 108.764 76.0547C109.486 75.7357 110.294 75.5762 111.186 75.5762C112.37 75.5762 113.37 75.791 114.184 76.2207C115.004 76.6504 115.639 77.2428 116.088 77.998C116.544 78.7533 116.817 79.6126 116.908 80.5762H113.979C113.946 80.0033 113.832 79.5182 113.637 79.1211C113.441 78.7174 113.145 78.4147 112.748 78.2129C112.357 78.0046 111.837 77.9004 111.186 77.9004C110.697 77.9004 110.271 77.9915 109.906 78.1738C109.542 78.3561 109.236 78.6328 108.988 79.0039C108.741 79.375 108.555 79.8438 108.432 80.4102C108.314 80.9701 108.256 81.6276 108.256 82.3828V83.3887C108.256 84.1243 108.311 84.7721 108.422 85.332C108.533 85.8854 108.702 86.3542 108.93 86.7383C109.164 87.1159 109.464 87.4023 109.828 87.5977C110.199 87.7865 110.645 87.8809 111.166 87.8809C111.778 87.8809 112.283 87.7832 112.68 87.5879C113.077 87.3926 113.38 87.1029 113.588 86.7188C113.803 86.3346 113.93 85.8561 113.969 85.2832ZM130.492 82.5586V83.2324C130.492 84.3132 130.346 85.2832 130.053 86.1426C129.76 87.002 129.346 87.7344 128.812 88.3398C128.279 88.9388 127.641 89.3978 126.898 89.7168C126.163 90.0358 125.346 90.1953 124.447 90.1953C123.555 90.1953 122.738 90.0358 121.996 89.7168C121.26 89.3978 120.622 88.9388 120.082 88.3398C119.542 87.7344 119.122 87.002 118.822 86.1426C118.529 85.2832 118.383 84.3132 118.383 83.2324V82.5586C118.383 81.4714 118.529 80.5013 118.822 79.6484C119.115 78.7891 119.529 78.0566 120.062 77.4512C120.603 76.8457 121.241 76.3835 121.977 76.0645C122.719 75.7454 123.536 75.5859 124.428 75.5859C125.326 75.5859 126.143 75.7454 126.879 76.0645C127.621 76.3835 128.259 76.8457 128.793 77.4512C129.333 78.0566 129.75 78.7891 130.043 79.6484C130.342 80.5013 130.492 81.4714 130.492 82.5586ZM127.533 83.2324V82.5391C127.533 81.7839 127.465 81.1198 127.328 80.5469C127.191 79.974 126.99 79.4922 126.723 79.1016C126.456 78.7109 126.13 78.418 125.746 78.2227C125.362 78.0208 124.923 77.9199 124.428 77.9199C123.933 77.9199 123.493 78.0208 123.109 78.2227C122.732 78.418 122.41 78.7109 122.143 79.1016C121.882 79.4922 121.684 79.974 121.547 80.5469C121.41 81.1198 121.342 81.7839 121.342 82.5391V83.2324C121.342 83.9811 121.41 84.6452 121.547 85.2246C121.684 85.7975 121.885 86.2826 122.152 86.6797C122.419 87.0703 122.745 87.3665 123.129 87.5684C123.513 87.7702 123.952 87.8711 124.447 87.8711C124.942 87.8711 125.382 87.7702 125.766 87.5684C126.15 87.3665 126.472 87.0703 126.732 86.6797C126.993 86.2826 127.191 85.7975 127.328 85.2246C127.465 84.6452 127.533 83.9811 127.533 83.2324ZM138.295 75.7812V90H135.375V75.7812H138.295ZM142.67 75.7812V78.0762H131.068V75.7812H142.67ZM149.066 78.2129L145.199 90H142.084L147.367 75.7812H149.35L149.066 78.2129ZM152.279 90L148.402 78.2129L148.09 75.7812H150.092L155.404 90H152.279ZM152.104 84.707V87.002H144.594V84.707H152.104ZM164.125 86.2793C164.125 86.0254 164.086 85.7975 164.008 85.5957C163.936 85.3874 163.799 85.1986 163.598 85.0293C163.396 84.8535 163.113 84.681 162.748 84.5117C162.383 84.3424 161.911 84.1667 161.332 83.9844C160.688 83.776 160.076 83.5417 159.496 83.2812C158.923 83.0208 158.415 82.7181 157.973 82.373C157.536 82.0215 157.191 81.6146 156.938 81.1523C156.69 80.6901 156.566 80.153 156.566 79.541C156.566 78.9486 156.697 78.4115 156.957 77.9297C157.217 77.4414 157.582 77.0247 158.051 76.6797C158.52 76.3281 159.073 76.0579 159.711 75.8691C160.355 75.6803 161.062 75.5859 161.83 75.5859C162.878 75.5859 163.793 75.7747 164.574 76.1523C165.355 76.5299 165.961 77.0475 166.391 77.7051C166.827 78.3626 167.045 79.1146 167.045 79.9609H164.135C164.135 79.5443 164.047 79.1797 163.871 78.8672C163.702 78.5482 163.441 78.2975 163.09 78.1152C162.745 77.9329 162.309 77.8418 161.781 77.8418C161.273 77.8418 160.85 77.9199 160.512 78.0762C160.173 78.2259 159.919 78.431 159.75 78.6914C159.581 78.9453 159.496 79.2318 159.496 79.5508C159.496 79.7917 159.555 80.0098 159.672 80.2051C159.796 80.4004 159.978 80.5827 160.219 80.752C160.46 80.9212 160.756 81.0807 161.107 81.2305C161.459 81.3802 161.866 81.5267 162.328 81.6699C163.103 81.9043 163.783 82.168 164.369 82.4609C164.962 82.7539 165.456 83.0827 165.854 83.4473C166.251 83.8118 166.55 84.2253 166.752 84.6875C166.954 85.1497 167.055 85.6738 167.055 86.2598C167.055 86.8783 166.934 87.4316 166.693 87.9199C166.452 88.4082 166.104 88.8216 165.648 89.1602C165.193 89.4987 164.649 89.7559 164.018 89.9316C163.386 90.1074 162.68 90.1953 161.898 90.1953C161.195 90.1953 160.502 90.1042 159.818 89.9219C159.135 89.7331 158.513 89.4499 157.953 89.0723C157.4 88.6947 156.957 88.2129 156.625 87.627C156.293 87.041 156.127 86.3477 156.127 85.5469H159.066C159.066 85.9896 159.135 86.3639 159.271 86.6699C159.408 86.9759 159.6 87.2233 159.848 87.4121C160.102 87.6009 160.401 87.7376 160.746 87.8223C161.098 87.9069 161.482 87.9492 161.898 87.9492C162.406 87.9492 162.823 87.8776 163.148 87.7344C163.48 87.5911 163.725 87.3926 163.881 87.1387C164.044 86.8848 164.125 86.5983 164.125 86.2793Z" fill="#1C778B"/>
<path d="M105.731 131.046C109.374 130.527 113.233 134.465 114.345 139.9C115.456 145.303 113.45 150.127 109.806 150.676C106.194 151.226 102.304 147.288 101.162 141.853C100.019 136.45 102.088 131.626 105.731 131.046ZM127.806 131.046C131.48 131.626 133.517 136.45 132.437 141.853C131.264 147.288 127.404 151.226 123.761 150.676C120.087 150.127 118.081 145.303 119.223 139.9C120.334 134.465 124.194 130.527 127.806 131.046ZM89.2137 145.09C92.7333 143.594 97.5187 146.311 100.019 151.043C102.366 155.867 101.563 160.934 98.0744 162.43C94.5857 163.926 89.8312 161.24 87.3922 156.447C84.9531 151.653 85.8176 146.555 89.2137 145.09ZM144.786 145.09C148.182 146.555 149.047 151.653 146.608 156.447C144.169 161.24 139.414 163.926 135.926 162.43C132.437 160.934 131.634 155.867 133.981 151.043C136.481 146.311 141.267 143.594 144.786 145.09ZM139.63 178C139.754 180.87 137.531 184.045 134.876 185.236C129.349 187.739 122.804 182.549 116.66 182.549C110.517 182.549 103.91 187.953 98.4758 185.236C95.3884 183.74 93.2582 179.771 93.6595 176.474C94.2152 171.925 99.7416 169.483 103.014 166.155C107.367 161.85 110.455 153.76 116.66 153.76C122.835 153.76 126.108 161.728 130.276 166.155C133.703 169.88 139.414 173.024 139.63 178Z" fill="#1C778B"/>
</g>
<defs>
<filter id="filter0_d_156_1777" x="0" y="0" width="228" height="274" filterUnits="userSpaceOnUse" color-interpolation-filters="sRGB">
<feFlood flood-opacity="0" result="BackgroundImageFix"/>
<feColorMatrix in="SourceAlpha" type="matrix" values="0 0 0 0 0 0 0 0 0 0 0 0 0 0 0 0 0 0 127 0" result="hardAlpha"/>
<feOffset dy="4"/>
<feGaussianBlur stdDeviation="12.5"/>
<feComposite in2="hardAlpha" operator="out"/>
<feColorMatrix type="matrix" values="0 0 0 0 0.109804 0 0 0 0 0.466667 0 0 0 0 0.545098 0 0 0 0.25 0"/>
<feBlend mode="normal" in2="BackgroundImageFix" result="effect1_dropShadow_156_1777"/>
<feBlend mode="normal" in="SourceGraphic" in2="effect1_dropShadow_156_1777" result="shape"/>
</filter>
</defs>
</svg>
