<svg width="228" height="274" viewBox="0 0 228 274" fill="none" xmlns="http://www.w3.org/2000/svg">
<g filter="url(#filter0_d_156_1770)">
<rect x="25" y="21" width="178" height="224" rx="10" fill="#FAFAFA"/>
<path d="M51.1992 75.7812V90H48.2695V75.7812H51.1992ZM56.8633 81.8555V84.1406H50.3984V81.8555H56.8633ZM57.5469 75.7812V78.0762H50.3984V75.7812H57.5469ZM63.2305 78.2129L59.3633 90H56.248L61.5312 75.7812H63.5137L63.2305 78.2129ZM66.4434 90L62.5664 78.2129L62.2539 75.7812H64.2559L69.5684 90H66.4434ZM66.2676 84.707V87.002H58.7578V84.707H66.2676ZM78.9531 85.2832H81.873C81.8145 86.2402 81.5508 87.0898 81.082 87.832C80.6198 88.5742 79.972 89.1536 79.1387 89.5703C78.3118 89.987 77.3158 90.1953 76.1504 90.1953C75.2389 90.1953 74.4219 90.0391 73.6992 89.7266C72.9766 89.4076 72.3581 88.9518 71.8438 88.3594C71.3359 87.7669 70.9486 87.0508 70.6816 86.2109C70.4147 85.3711 70.2812 84.4303 70.2812 83.3887V82.4023C70.2812 81.3607 70.418 80.4199 70.6914 79.5801C70.9714 78.7337 71.3685 78.0143 71.8828 77.4219C72.4036 76.8294 73.0254 76.3737 73.748 76.0547C74.4707 75.7357 75.278 75.5762 76.1699 75.5762C77.3548 75.5762 78.3542 75.791 79.168 76.2207C79.9883 76.6504 80.623 77.2428 81.0723 77.998C81.528 78.7533 81.8014 79.6126 81.8926 80.5762H78.9629C78.9303 80.0033 78.8164 79.5182 78.6211 79.1211C78.4258 78.7174 78.1296 78.4147 77.7324 78.2129C77.3418 78.0046 76.821 77.9004 76.1699 77.9004C75.6816 77.9004 75.2552 77.9915 74.8906 78.1738C74.526 78.3561 74.2201 78.6328 73.9727 79.0039C73.7253 79.375 73.5397 79.8438 73.416 80.4102C73.2988 80.9701 73.2402 81.6276 73.2402 82.3828V83.3887C73.2402 84.1243 73.2956 84.7721 73.4062 85.332C73.5169 85.8854 73.6862 86.3542 73.9141 86.7383C74.1484 87.1159 74.4479 87.4023 74.8125 87.5977C75.1836 87.7865 75.6296 87.8809 76.1504 87.8809C76.7624 87.8809 77.2669 87.7832 77.6641 87.5879C78.0612 87.3926 78.3639 87.1029 78.5723 86.7188C78.7871 86.3346 78.9141 85.8561 78.9531 85.2832ZM89.8613 75.7812V90H86.9414V75.7812H89.8613ZM94.2363 75.7812V78.0762H82.6348V75.7812H94.2363ZM103.758 75.7812H106.678V85.1758C106.678 86.2695 106.443 87.1908 105.975 87.9395C105.512 88.6882 104.871 89.2513 104.051 89.6289C103.237 90.0065 102.299 90.1953 101.238 90.1953C100.177 90.1953 99.2331 90.0065 98.4062 89.6289C97.5859 89.2513 96.9414 88.6882 96.4727 87.9395C96.0104 87.1908 95.7793 86.2695 95.7793 85.1758V75.7812H98.709V85.1758C98.709 85.8138 98.8099 86.3346 99.0117 86.7383C99.2135 87.1419 99.5033 87.4382 99.8809 87.627C100.265 87.8158 100.717 87.9102 101.238 87.9102C101.772 87.9102 102.225 87.8158 102.596 87.627C102.973 87.4382 103.26 87.1419 103.455 86.7383C103.657 86.3346 103.758 85.8138 103.758 85.1758V75.7812ZM109.09 75.7812H114.393C115.48 75.7812 116.414 75.944 117.195 76.2695C117.983 76.5951 118.589 77.0768 119.012 77.7148C119.435 78.3529 119.646 79.1374 119.646 80.0684C119.646 80.8301 119.516 81.4844 119.256 82.0312C119.002 82.5716 118.641 83.0241 118.172 83.3887C117.71 83.7467 117.166 84.0332 116.541 84.248L115.613 84.7363H111.004L110.984 82.4512H114.412C114.926 82.4512 115.353 82.36 115.691 82.1777C116.03 81.9954 116.284 81.7415 116.453 81.416C116.629 81.0905 116.717 80.7129 116.717 80.2832C116.717 79.8275 116.632 79.4336 116.463 79.1016C116.294 78.7695 116.036 78.5156 115.691 78.3398C115.346 78.1641 114.913 78.0762 114.393 78.0762H112.02V90H109.09V75.7812ZM117.039 90L113.797 83.6621L116.893 83.6426L120.174 89.8633V90H117.039ZM127.684 78.2129L123.816 90H120.701L125.984 75.7812H127.967L127.684 78.2129ZM130.896 90L127.02 78.2129L126.707 75.7812H128.709L134.021 90H130.896ZM130.721 84.707V87.002H123.211V84.707H130.721ZM143.406 85.2832H146.326C146.268 86.2402 146.004 87.0898 145.535 87.832C145.073 88.5742 144.425 89.1536 143.592 89.5703C142.765 89.987 141.769 90.1953 140.604 90.1953C139.692 90.1953 138.875 90.0391 138.152 89.7266C137.43 89.4076 136.811 88.9518 136.297 88.3594C135.789 87.7669 135.402 87.0508 135.135 86.2109C134.868 85.3711 134.734 84.4303 134.734 83.3887V82.4023C134.734 81.3607 134.871 80.4199 135.145 79.5801C135.424 78.7337 135.822 78.0143 136.336 77.4219C136.857 76.8294 137.479 76.3737 138.201 76.0547C138.924 75.7357 139.731 75.5762 140.623 75.5762C141.808 75.5762 142.807 75.791 143.621 76.2207C144.441 76.6504 145.076 77.2428 145.525 77.998C145.981 78.7533 146.255 79.6126 146.346 80.5762H143.416C143.383 80.0033 143.27 79.5182 143.074 79.1211C142.879 78.7174 142.583 78.4147 142.186 78.2129C141.795 78.0046 141.274 77.9004 140.623 77.9004C140.135 77.9004 139.708 77.9915 139.344 78.1738C138.979 78.3561 138.673 78.6328 138.426 79.0039C138.178 79.375 137.993 79.8438 137.869 80.4102C137.752 80.9701 137.693 81.6276 137.693 82.3828V83.3887C137.693 84.1243 137.749 84.7721 137.859 85.332C137.97 85.8854 138.139 86.3542 138.367 86.7383C138.602 87.1159 138.901 87.4023 139.266 87.5977C139.637 87.7865 140.083 87.8809 140.604 87.8809C141.215 87.8809 141.72 87.7832 142.117 87.5879C142.514 87.3926 142.817 87.1029 143.025 86.7188C143.24 86.3346 143.367 85.8561 143.406 85.2832ZM151.365 75.7812V90H148.445V75.7812H151.365ZM165.789 82.5586V83.2324C165.789 84.3132 165.643 85.2832 165.35 86.1426C165.057 87.002 164.643 87.7344 164.109 88.3398C163.576 88.9388 162.938 89.3978 162.195 89.7168C161.46 90.0358 160.643 90.1953 159.744 90.1953C158.852 90.1953 158.035 90.0358 157.293 89.7168C156.557 89.3978 155.919 88.9388 155.379 88.3398C154.839 87.7344 154.419 87.002 154.119 86.1426C153.826 85.2832 153.68 84.3132 153.68 83.2324V82.5586C153.68 81.4714 153.826 80.5013 154.119 79.6484C154.412 78.7891 154.826 78.0566 155.359 77.4512C155.9 76.8457 156.538 76.3835 157.273 76.0645C158.016 75.7454 158.833 75.5859 159.725 75.5859C160.623 75.5859 161.44 75.7454 162.176 76.0645C162.918 76.3835 163.556 76.8457 164.09 77.4512C164.63 78.0566 165.047 78.7891 165.34 79.6484C165.639 80.5013 165.789 81.4714 165.789 82.5586ZM162.83 83.2324V82.5391C162.83 81.7839 162.762 81.1198 162.625 80.5469C162.488 79.974 162.286 79.4922 162.02 79.1016C161.753 78.7109 161.427 78.418 161.043 78.2227C160.659 78.0208 160.219 77.9199 159.725 77.9199C159.23 77.9199 158.79 78.0208 158.406 78.2227C158.029 78.418 157.706 78.7109 157.439 79.1016C157.179 79.4922 156.98 79.974 156.844 80.5469C156.707 81.1198 156.639 81.7839 156.639 82.5391V83.2324C156.639 83.9811 156.707 84.6452 156.844 85.2246C156.98 85.7975 157.182 86.2826 157.449 86.6797C157.716 87.0703 158.042 87.3665 158.426 87.5684C158.81 87.7702 159.249 87.8711 159.744 87.8711C160.239 87.8711 160.678 87.7702 161.062 87.5684C161.447 87.3665 161.769 87.0703 162.029 86.6797C162.29 86.2826 162.488 85.7975 162.625 85.2246C162.762 84.6452 162.83 83.9811 162.83 83.2324ZM179.471 75.7812V90H176.541L170.828 80.4688V90H167.898V75.7812H170.828L176.551 85.3223V75.7812H179.471Z" fill="#1C778B"/>
<path d="M129.363 183L122.625 175.65L125.467 172.759L129.363 176.655L138.158 167.859L141 171.313M132.425 137.675L128.75 134L125.075 137.675L121.4 134L117.725 137.675L114.05 134L110.375 137.675L106.7 134L103.025 137.675L99.35 134L95.675 137.675L92 134V183L95.675 179.325L99.35 183L103.025 179.325L106.7 183L110.375 179.325L114.05 183L117.137 179.913C116.721 178.541 116.5 177.096 116.5 175.65C116.5 173.984 116.794 172.318 117.333 170.75H99.35V165.85H120.248C123.041 162.739 127.011 160.95 131.2 160.95C132.866 160.95 134.532 161.244 136.1 161.783V134L132.425 137.675ZM128.75 160.95H99.35V156.05H128.75V160.95ZM128.75 151.15H99.35V146.25H128.75V151.15Z" fill="#1C778B"/>
</g>
<defs>
<filter id="filter0_d_156_1770" x="0" y="0" width="228" height="274" filterUnits="userSpaceOnUse" color-interpolation-filters="sRGB">
<feFlood flood-opacity="0" result="BackgroundImageFix"/>
<feColorMatrix in="SourceAlpha" type="matrix" values="0 0 0 0 0 0 0 0 0 0 0 0 0 0 0 0 0 0 127 0" result="hardAlpha"/>
<feOffset dy="4"/>
<feGaussianBlur stdDeviation="12.5"/>
<feComposite in2="hardAlpha" operator="out"/>
<feColorMatrix type="matrix" values="0 0 0 0 0.109804 0 0 0 0 0.466667 0 0 0 0 0.545098 0 0 0 0.25 0"/>
<feBlend mode="normal" in2="BackgroundImageFix" result="effect1_dropShadow_156_1770"/>
<feBlend mode="normal" in="SourceGraphic" in2="effect1_dropShadow_156_1770" result="shape"/>
</filter>
</defs>
</svg>
