<svg width="228" height="274" viewBox="0 0 228 274" fill="none" xmlns="http://www.w3.org/2000/svg">
<g filter="url(#filter0_d_156_1773)">
<rect x="25" y="21" width="178" height="224" rx="10" fill="#FAFAFA"/>
<path d="M42.5889 73.4385H39.3281V71.3818H42.5889C43.0928 71.3818 43.5029 71.2998 43.8193 71.1357C44.1357 70.9658 44.3672 70.7314 44.5137 70.4326C44.6602 70.1338 44.7334 69.7969 44.7334 69.4219C44.7334 69.041 44.6602 68.6865 44.5137 68.3584C44.3672 68.0303 44.1357 67.7666 43.8193 67.5674C43.5029 67.3682 43.0928 67.2686 42.5889 67.2686H40.2422V78H37.6055V65.2031H42.5889C43.5908 65.2031 44.4492 65.3848 45.1641 65.748C45.8848 66.1055 46.4355 66.6006 46.8164 67.2334C47.1973 67.8662 47.3877 68.5898 47.3877 69.4043C47.3877 70.2305 47.1973 70.9453 46.8164 71.5488C46.4355 72.1523 45.8848 72.6182 45.1641 72.9463C44.4492 73.2744 43.5908 73.4385 42.5889 73.4385ZM49.207 65.2031H53.9795C54.958 65.2031 55.7988 65.3496 56.502 65.6426C57.2109 65.9355 57.7559 66.3691 58.1367 66.9434C58.5176 67.5176 58.708 68.2236 58.708 69.0615C58.708 69.7471 58.5908 70.3359 58.3564 70.8281C58.1279 71.3145 57.8027 71.7217 57.3809 72.0498C56.9648 72.3721 56.4756 72.6299 55.9131 72.8232L55.0781 73.2627H50.9297L50.9121 71.2061H53.9971C54.46 71.2061 54.8438 71.124 55.1484 70.96C55.4531 70.7959 55.6816 70.5674 55.834 70.2744C55.9922 69.9814 56.0713 69.6416 56.0713 69.2549C56.0713 68.8447 55.9951 68.4902 55.8428 68.1914C55.6904 67.8926 55.459 67.6641 55.1484 67.5059C54.8379 67.3477 54.4482 67.2686 53.9795 67.2686H51.8438V78H49.207V65.2031ZM56.3613 78L53.4434 72.2959L56.2295 72.2783L59.1826 77.877V78H56.3613ZM71.25 71.3027V71.9092C71.25 72.8818 71.1182 73.7549 70.8545 74.5283C70.5908 75.3018 70.2188 75.9609 69.7383 76.5059C69.2578 77.0449 68.6836 77.458 68.0156 77.7451C67.3535 78.0322 66.6182 78.1758 65.8096 78.1758C65.0068 78.1758 64.2715 78.0322 63.6035 77.7451C62.9414 77.458 62.3672 77.0449 61.8809 76.5059C61.3945 75.9609 61.0166 75.3018 60.7471 74.5283C60.4834 73.7549 60.3516 72.8818 60.3516 71.9092V71.3027C60.3516 70.3242 60.4834 69.4512 60.7471 68.6836C61.0107 67.9102 61.3828 67.251 61.8633 66.7061C62.3496 66.1611 62.9238 65.7451 63.5859 65.458C64.2539 65.1709 64.9893 65.0273 65.792 65.0273C66.6006 65.0273 67.3359 65.1709 67.998 65.458C68.666 65.7451 69.2402 66.1611 69.7207 66.7061C70.207 67.251 70.582 67.9102 70.8457 68.6836C71.1152 69.4512 71.25 70.3242 71.25 71.3027ZM68.5869 71.9092V71.2852C68.5869 70.6055 68.5254 70.0078 68.4023 69.4922C68.2793 68.9766 68.0977 68.543 67.8574 68.1914C67.6172 67.8398 67.3242 67.5762 66.9785 67.4004C66.6328 67.2188 66.2373 67.1279 65.792 67.1279C65.3467 67.1279 64.9512 67.2188 64.6055 67.4004C64.2656 67.5762 63.9756 67.8398 63.7354 68.1914C63.501 68.543 63.3223 68.9766 63.1992 69.4922C63.0762 70.0078 63.0146 70.6055 63.0146 71.2852V71.9092C63.0146 72.583 63.0762 73.1807 63.1992 73.7021C63.3223 74.2178 63.5039 74.6543 63.7441 75.0117C63.9844 75.3633 64.2773 75.6299 64.623 75.8115C64.9688 75.9932 65.3643 76.084 65.8096 76.084C66.2549 76.084 66.6504 75.9932 66.9961 75.8115C67.3418 75.6299 67.6318 75.3633 67.8662 75.0117C68.1006 74.6543 68.2793 74.2178 68.4023 73.7021C68.5254 73.1807 68.5869 72.583 68.5869 71.9092ZM83.291 71.3115V76.3828C83.0918 76.623 82.7842 76.8838 82.3682 77.165C81.9521 77.4404 81.416 77.6777 80.7598 77.877C80.1035 78.0762 79.3096 78.1758 78.3779 78.1758C77.5518 78.1758 76.7988 78.041 76.1191 77.7715C75.4395 77.4961 74.8535 77.0947 74.3613 76.5674C73.875 76.04 73.5 75.3955 73.2363 74.6338C72.9727 73.8662 72.8408 72.9902 72.8408 72.0059V71.2061C72.8408 70.2217 72.9668 69.3457 73.2188 68.5781C73.4766 67.8105 73.8428 67.1631 74.3174 66.6357C74.792 66.1084 75.3574 65.707 76.0137 65.4316C76.6699 65.1562 77.3994 65.0186 78.2021 65.0186C79.3154 65.0186 80.2295 65.2002 80.9443 65.5635C81.6592 65.9209 82.2041 66.4189 82.5791 67.0576C82.96 67.6904 83.1943 68.417 83.2822 69.2373H80.7246C80.6602 68.8037 80.5371 68.4258 80.3555 68.1035C80.1738 67.7812 79.9131 67.5293 79.5732 67.3477C79.2393 67.166 78.8057 67.0752 78.2725 67.0752C77.833 67.0752 77.4404 67.166 77.0947 67.3477C76.7549 67.5234 76.4678 67.7842 76.2334 68.1299C75.999 68.4756 75.8203 68.9033 75.6973 69.4131C75.5742 69.9229 75.5127 70.5146 75.5127 71.1885V72.0059C75.5127 72.6738 75.5771 73.2656 75.7061 73.7812C75.835 74.291 76.0254 74.7217 76.2773 75.0732C76.5352 75.4189 76.8516 75.6797 77.2266 75.8555C77.6016 76.0312 78.0381 76.1191 78.5361 76.1191C78.9521 76.1191 79.2979 76.084 79.5732 76.0137C79.8545 75.9434 80.0801 75.8584 80.25 75.7588C80.4258 75.6533 80.5605 75.5537 80.6543 75.46V73.1924H78.2461V71.3115H83.291ZM85.418 65.2031H90.1904C91.1689 65.2031 92.0098 65.3496 92.7129 65.6426C93.4219 65.9355 93.9668 66.3691 94.3477 66.9434C94.7285 67.5176 94.9189 68.2236 94.9189 69.0615C94.9189 69.7471 94.8018 70.3359 94.5674 70.8281C94.3389 71.3145 94.0137 71.7217 93.5918 72.0498C93.1758 72.3721 92.6865 72.6299 92.124 72.8232L91.2891 73.2627H87.1406L87.123 71.2061H90.208C90.6709 71.2061 91.0547 71.124 91.3594 70.96C91.6641 70.7959 91.8926 70.5674 92.0449 70.2744C92.2031 69.9814 92.2822 69.6416 92.2822 69.2549C92.2822 68.8447 92.2061 68.4902 92.0537 68.1914C91.9014 67.8926 91.6699 67.6641 91.3594 67.5059C91.0488 67.3477 90.6592 67.2686 90.1904 67.2686H88.0547V78H85.418V65.2031ZM92.5723 78L89.6543 72.2959L92.4404 72.2783L95.3936 77.877V78H92.5723ZM102.152 67.3916L98.6719 78H95.8682L100.623 65.2031H102.407L102.152 67.3916ZM105.044 78L101.555 67.3916L101.273 65.2031H103.075L107.856 78H105.044ZM104.886 73.2363V75.3018H98.127V73.2363H104.886ZM110.247 65.2031H112.479L115.767 74.5986L119.054 65.2031H121.286L116.663 78H114.87L110.247 65.2031ZM109.043 65.2031H111.267L111.671 74.3613V78H109.043V65.2031ZM120.267 65.2031H122.499V78H119.862V74.3613L120.267 65.2031ZM130.172 67.3916L126.691 78H123.888L128.643 65.2031H130.427L130.172 67.3916ZM133.063 78L129.574 67.3916L129.293 65.2031H131.095L135.876 78H133.063ZM132.905 73.2363V75.3018H126.146V73.2363H132.905ZM144.322 73.7549H146.95C146.897 74.6162 146.66 75.3809 146.238 76.0488C145.822 76.7168 145.239 77.2383 144.489 77.6133C143.745 77.9883 142.849 78.1758 141.8 78.1758C140.979 78.1758 140.244 78.0352 139.594 77.7539C138.943 77.4668 138.387 77.0566 137.924 76.5234C137.467 75.9902 137.118 75.3457 136.878 74.5898C136.638 73.834 136.518 72.9873 136.518 72.0498V71.1621C136.518 70.2246 136.641 69.3779 136.887 68.6221C137.139 67.8604 137.496 67.2129 137.959 66.6797C138.428 66.1465 138.987 65.7363 139.638 65.4492C140.288 65.1621 141.015 65.0186 141.817 65.0186C142.884 65.0186 143.783 65.2119 144.516 65.5986C145.254 65.9854 145.825 66.5186 146.229 67.1982C146.64 67.8779 146.886 68.6514 146.968 69.5186H144.331C144.302 69.0029 144.199 68.5664 144.023 68.209C143.848 67.8457 143.581 67.5732 143.224 67.3916C142.872 67.2041 142.403 67.1104 141.817 67.1104C141.378 67.1104 140.994 67.1924 140.666 67.3564C140.338 67.5205 140.062 67.7695 139.84 68.1035C139.617 68.4375 139.45 68.8594 139.339 69.3691C139.233 69.873 139.181 70.4648 139.181 71.1445V72.0498C139.181 72.7119 139.23 73.2949 139.33 73.7988C139.43 74.2969 139.582 74.7188 139.787 75.0645C139.998 75.4043 140.268 75.6621 140.596 75.8379C140.93 76.0078 141.331 76.0928 141.8 76.0928C142.351 76.0928 142.805 76.0049 143.162 75.8291C143.52 75.6533 143.792 75.3926 143.979 75.0469C144.173 74.7012 144.287 74.2705 144.322 73.7549ZM151.485 65.2031V78H148.857V65.2031H151.485ZM164.467 71.3027V71.9092C164.467 72.8818 164.335 73.7549 164.071 74.5283C163.808 75.3018 163.436 75.9609 162.955 76.5059C162.475 77.0449 161.9 77.458 161.232 77.7451C160.57 78.0322 159.835 78.1758 159.026 78.1758C158.224 78.1758 157.488 78.0322 156.82 77.7451C156.158 77.458 155.584 77.0449 155.098 76.5059C154.611 75.9609 154.233 75.3018 153.964 74.5283C153.7 73.7549 153.568 72.8818 153.568 71.9092V71.3027C153.568 70.3242 153.7 69.4512 153.964 68.6836C154.228 67.9102 154.6 67.251 155.08 66.7061C155.566 66.1611 156.141 65.7451 156.803 65.458C157.471 65.1709 158.206 65.0273 159.009 65.0273C159.817 65.0273 160.553 65.1709 161.215 65.458C161.883 65.7451 162.457 66.1611 162.938 66.7061C163.424 67.251 163.799 67.9102 164.062 68.6836C164.332 69.4512 164.467 70.3242 164.467 71.3027ZM161.804 71.9092V71.2852C161.804 70.6055 161.742 70.0078 161.619 69.4922C161.496 68.9766 161.314 68.543 161.074 68.1914C160.834 67.8398 160.541 67.5762 160.195 67.4004C159.85 67.2188 159.454 67.1279 159.009 67.1279C158.563 67.1279 158.168 67.2188 157.822 67.4004C157.482 67.5762 157.192 67.8398 156.952 68.1914C156.718 68.543 156.539 68.9766 156.416 69.4922C156.293 70.0078 156.231 70.6055 156.231 71.2852V71.9092C156.231 72.583 156.293 73.1807 156.416 73.7021C156.539 74.2178 156.721 74.6543 156.961 75.0117C157.201 75.3633 157.494 75.6299 157.84 75.8115C158.186 75.9932 158.581 76.084 159.026 76.084C159.472 76.084 159.867 75.9932 160.213 75.8115C160.559 75.6299 160.849 75.3633 161.083 75.0117C161.317 74.6543 161.496 74.2178 161.619 73.7021C161.742 73.1807 161.804 72.583 161.804 71.9092ZM174.776 78H171.99L172.008 75.9434H174.776C175.468 75.9434 176.051 75.7881 176.525 75.4775C177 75.1611 177.357 74.7012 177.598 74.0977C177.844 73.4941 177.967 72.7646 177.967 71.9092V71.2852C177.967 70.6289 177.896 70.0518 177.756 69.5537C177.621 69.0557 177.419 68.6367 177.149 68.2969C176.88 67.957 176.549 67.7021 176.156 67.5322C175.764 67.3564 175.312 67.2686 174.803 67.2686H171.938V65.2031H174.803C175.658 65.2031 176.44 65.3496 177.149 65.6426C177.864 65.9297 178.482 66.3428 179.004 66.8818C179.525 67.4209 179.927 68.0654 180.208 68.8154C180.495 69.5596 180.639 70.3887 180.639 71.3027V71.9092C180.639 72.8174 180.495 73.6465 180.208 74.3965C179.927 75.1465 179.525 75.791 179.004 76.3301C178.488 76.8633 177.87 77.2764 177.149 77.5693C176.435 77.8564 175.644 78 174.776 78ZM173.484 65.2031V78H170.848V65.2031H173.484ZM191.142 75.9434V78H184.33V75.9434H191.142ZM185.191 65.2031V78H182.555V65.2031H185.191ZM190.254 70.415V72.4189H184.33V70.415H190.254ZM191.133 65.2031V67.2686H184.33V65.2031H191.133ZM97.4678 94.7549H100.096C100.043 95.6162 99.8057 96.3809 99.3838 97.0488C98.9678 97.7168 98.3848 98.2383 97.6348 98.6133C96.8906 98.9883 95.9941 99.1758 94.9453 99.1758C94.125 99.1758 93.3896 99.0352 92.7393 98.7539C92.0889 98.4668 91.5322 98.0566 91.0693 97.5234C90.6123 96.9902 90.2637 96.3457 90.0234 95.5898C89.7832 94.834 89.6631 93.9873 89.6631 93.0498V92.1621C89.6631 91.2246 89.7861 90.3779 90.0322 89.6221C90.2842 88.8604 90.6416 88.2129 91.1045 87.6797C91.5732 87.1465 92.1328 86.7363 92.7832 86.4492C93.4336 86.1621 94.1602 86.0186 94.9629 86.0186C96.0293 86.0186 96.9287 86.2119 97.6611 86.5986C98.3994 86.9854 98.9707 87.5186 99.375 88.1982C99.7852 88.8779 100.031 89.6514 100.113 90.5186H97.4766C97.4473 90.0029 97.3447 89.5664 97.1689 89.209C96.9932 88.8457 96.7266 88.5732 96.3691 88.3916C96.0176 88.2041 95.5488 88.1104 94.9629 88.1104C94.5234 88.1104 94.1396 88.1924 93.8115 88.3564C93.4834 88.5205 93.208 88.7695 92.9854 89.1035C92.7627 89.4375 92.5957 89.8594 92.4844 90.3691C92.3789 90.873 92.3262 91.4648 92.3262 92.1445V93.0498C92.3262 93.7119 92.376 94.2949 92.4756 94.7988C92.5752 95.2969 92.7275 95.7188 92.9326 96.0645C93.1436 96.4043 93.4131 96.6621 93.7412 96.8379C94.0752 97.0078 94.4766 97.0928 94.9453 97.0928C95.4961 97.0928 95.9502 97.0049 96.3076 96.8291C96.665 96.6533 96.9375 96.3926 97.125 96.0469C97.3184 95.7012 97.4326 95.2705 97.4678 94.7549ZM104.631 86.2031V99H102.003V86.2031H104.631ZM112.559 86.2031V99H109.931V86.2031H112.559ZM116.496 86.2031V88.2686H106.055V86.2031H116.496ZM122.253 88.3916L118.772 99H115.969L120.724 86.2031H122.508L122.253 88.3916ZM125.145 99L121.655 88.3916L121.374 86.2031H123.176L127.957 99H125.145ZM124.986 94.2363V96.3018H118.228V94.2363H124.986ZM135.806 95.6514C135.806 95.4229 135.771 95.2178 135.7 95.0361C135.636 94.8486 135.513 94.6787 135.331 94.5264C135.149 94.3682 134.895 94.2129 134.566 94.0605C134.238 93.9082 133.813 93.75 133.292 93.5859C132.712 93.3984 132.161 93.1875 131.64 92.9531C131.124 92.7188 130.667 92.4463 130.269 92.1357C129.876 91.8193 129.565 91.4531 129.337 91.0371C129.114 90.6211 129.003 90.1377 129.003 89.5869C129.003 89.0537 129.12 88.5703 129.354 88.1367C129.589 87.6973 129.917 87.3223 130.339 87.0117C130.761 86.6953 131.259 86.4521 131.833 86.2822C132.413 86.1123 133.049 86.0273 133.74 86.0273C134.684 86.0273 135.507 86.1973 136.21 86.5371C136.913 86.877 137.458 87.3428 137.845 87.9346C138.237 88.5264 138.434 89.2031 138.434 89.9648H135.814C135.814 89.5898 135.735 89.2617 135.577 88.9805C135.425 88.6934 135.19 88.4678 134.874 88.3037C134.563 88.1396 134.171 88.0576 133.696 88.0576C133.239 88.0576 132.858 88.1279 132.554 88.2686C132.249 88.4033 132.021 88.5879 131.868 88.8223C131.716 89.0508 131.64 89.3086 131.64 89.5957C131.64 89.8125 131.692 90.0088 131.798 90.1846C131.909 90.3604 132.073 90.5244 132.29 90.6768C132.507 90.8291 132.773 90.9727 133.09 91.1074C133.406 91.2422 133.772 91.374 134.188 91.5029C134.886 91.7139 135.498 91.9512 136.025 92.2148C136.559 92.4785 137.004 92.7744 137.361 93.1025C137.719 93.4307 137.988 93.8027 138.17 94.2188C138.352 94.6348 138.442 95.1064 138.442 95.6338C138.442 96.1904 138.334 96.6885 138.117 97.1279C137.9 97.5674 137.587 97.9395 137.177 98.2441C136.767 98.5488 136.277 98.7803 135.709 98.9385C135.141 99.0967 134.505 99.1758 133.802 99.1758C133.169 99.1758 132.545 99.0938 131.93 98.9297C131.314 98.7598 130.755 98.5049 130.251 98.165C129.753 97.8252 129.354 97.3916 129.056 96.8643C128.757 96.3369 128.607 95.7129 128.607 94.9922H131.253C131.253 95.3906 131.314 95.7275 131.438 96.0029C131.561 96.2783 131.733 96.501 131.956 96.6709C132.185 96.8408 132.454 96.9639 132.765 97.04C133.081 97.1162 133.427 97.1543 133.802 97.1543C134.259 97.1543 134.634 97.0898 134.927 96.9609C135.226 96.832 135.445 96.6533 135.586 96.4248C135.732 96.1963 135.806 95.9385 135.806 95.6514Z" fill="#1C778B"/>
<path d="M135.208 179.208H93.7917V146.667H135.208M135.208 131.875H132.25V125.958H126.333V131.875H102.667V125.958H96.75V131.875H93.7917C90.5079 131.875 87.875 134.537 87.875 137.792V179.208C87.875 180.777 88.4984 182.282 89.608 183.392C90.7175 184.502 92.2225 185.125 93.7917 185.125H135.208C136.778 185.125 138.282 184.502 139.392 183.392C140.502 182.282 141.125 180.777 141.125 179.208V137.792C141.125 136.222 140.502 134.717 139.392 133.608C138.282 132.498 136.778 131.875 135.208 131.875ZM127.901 155.719L124.765 152.583L110.329 167.02L104.057 160.748L100.921 163.884L110.329 173.292L127.901 155.719Z" fill="#1C778B"/>
</g>
<defs>
<filter id="filter0_d_156_1773" x="0" y="0" width="228" height="274" filterUnits="userSpaceOnUse" color-interpolation-filters="sRGB">
<feFlood flood-opacity="0" result="BackgroundImageFix"/>
<feColorMatrix in="SourceAlpha" type="matrix" values="0 0 0 0 0 0 0 0 0 0 0 0 0 0 0 0 0 0 127 0" result="hardAlpha"/>
<feOffset dy="4"/>
<feGaussianBlur stdDeviation="12.5"/>
<feComposite in2="hardAlpha" operator="out"/>
<feColorMatrix type="matrix" values="0 0 0 0 0.109804 0 0 0 0 0.466667 0 0 0 0 0.545098 0 0 0 0.25 0"/>
<feBlend mode="normal" in2="BackgroundImageFix" result="effect1_dropShadow_156_1773"/>
<feBlend mode="normal" in="SourceGraphic" in2="effect1_dropShadow_156_1773" result="shape"/>
</filter>
</defs>
</svg>
