<svg width="167" height="159" viewBox="0 0 167 159" fill="none" xmlns="http://www.w3.org/2000/svg">
<path d="M165.527 87.45L156.175 96.8029L137.004 77.6294L146.356 68.2765C148.32 66.3124 151.593 66.3124 153.557 68.2765L165.527 80.2482C167.491 82.2124 167.491 85.4859 165.527 87.45ZM74.8145 139.733L131.486 83.0541L150.658 102.228L94.0792 159H74.8145V139.733ZM74.8145 93.5294C33.4795 93.5294 0 110.271 0 130.941V149.647H56.1109V131.97L93.5181 94.5582C87.3459 93.81 81.0802 93.5294 74.8145 93.5294ZM74.8145 0C64.8935 0 55.3788 3.94158 48.3636 10.9577C41.3484 17.9737 37.4073 27.4895 37.4073 37.4118C37.4073 47.334 41.3484 56.8498 48.3636 63.8659C55.3788 70.882 64.8935 74.8235 74.8145 74.8235C84.7355 74.8235 94.2502 70.882 101.265 63.8659C108.281 56.8498 112.222 47.334 112.222 37.4118C112.222 27.4895 108.281 17.9737 101.265 10.9577C94.2502 3.94158 84.7355 0 74.8145 0Z" fill="#FAFAFA"/>
</svg>
