<svg width="345" height="198" viewBox="0 0 345 198" fill="none" xmlns="http://www.w3.org/2000/svg">
<g clip-path="url(#clip0_3_4)">
<path d="M226.551 115.755C226.572 115.732 226.599 115.714 226.632 115.703C226.662 115.691 226.687 115.698 226.705 115.724C226.806 115.863 226.84 116.015 226.808 116.178C226.784 116.285 226.802 116.385 226.86 116.478C227.223 117.069 226.984 117.764 226.695 118.254C226.573 118.461 226.35 118.588 226.026 118.634C224.049 118.912 222.209 118.912 220.508 118.634C219.829 118.523 219.238 117.998 219.22 117.341C219.115 113.826 219.028 110.311 218.96 106.795C218.958 106.718 218.938 106.646 218.9 106.578C218.87 106.528 218.853 106.47 218.851 106.411C218.656 100.631 218.438 96.3919 218.196 93.6942C218.024 91.7687 217.947 90.1123 217.746 88.2217C217.68 87.5927 217.632 86.9637 217.602 86.3347C217.524 84.8216 217.289 83.3434 217.204 81.8338C217.116 80.2648 216.923 78.5525 216.687 76.9869C216.553 76.1063 216.542 75.1593 216.423 74.3346C216.089 72.0282 215.891 69.7323 215.547 67.391C215.205 65.0637 215.033 62.6629 214.565 60.3601C214.428 59.6856 214.431 58.9622 214.308 58.3297C213.97 56.5965 213.745 54.8352 213.456 53.0985C211.608 41.8508 209.328 30.6894 206.619 19.6141C205.847 16.4528 205.061 13.2937 204.261 10.137C204.137 9.64779 204.307 9.15623 204.771 8.66234C204.846 8.5808 204.939 8.52955 205.049 8.50858C205.575 8.41074 206.099 8.40957 206.622 8.50509C209.377 9.00597 212.134 9.48588 214.896 9.94482C215.182 9.99142 215.452 10.0089 215.705 9.99724C215.761 9.99413 215.814 9.97599 215.86 9.94477C215.906 9.91356 215.943 9.87045 215.966 9.8201C215.989 9.76975 215.998 9.71408 215.992 9.65908C215.986 9.60408 215.964 9.55184 215.93 9.50801C215.656 9.15856 215.355 8.83823 215.029 8.54702C212.627 6.38509 209.935 4.66812 206.953 3.39612C203.311 1.84456 198.655 8.13118 197.047 10.5284C196.737 10.9874 196.322 11.1458 195.801 11.0037C191.944 9.95764 188.085 9.95414 184.224 10.9932C183.52 11.1819 182.956 10.9908 182.531 10.4201C182.123 9.87493 181.277 8.96753 179.994 7.69786C176.802 4.54232 173.22 2.53298 168.613 2.837C168.254 2.8603 167.887 3.04318 167.512 3.38564C165.435 5.28432 163.268 7.23542 161.008 9.23893C160.938 9.3009 160.885 9.37994 160.855 9.4683C160.825 9.55665 160.818 9.65129 160.836 9.74292C160.854 9.83455 160.895 9.92003 160.956 9.99096C161.017 10.0619 161.096 10.1158 161.184 10.1475C163.563 11.0106 167.867 11.5034 169.996 9.80155C170.848 9.12129 171.727 8.60061 172.635 8.23951C172.734 8.20123 172.839 8.18365 172.944 8.18791C173.049 8.19217 173.152 8.21817 173.247 8.26424C173.341 8.31031 173.425 8.37543 173.492 8.45542C173.56 8.53541 173.609 8.62851 173.638 8.72874C173.781 9.22263 173.781 9.77476 173.638 10.3851C172.705 14.3456 171.78 18.3083 170.865 22.2734C168.463 32.6824 166.319 43.3243 164.432 54.1992C164.383 54.4788 164.501 54.6337 164.784 54.664C166.072 54.8085 167.465 54.8446 168.961 54.7723C169.345 54.7549 169.679 54.9506 170.031 54.9436C171.613 54.9203 173.193 54.9424 174.771 55.01C175.415 55.0379 175.781 54.8702 176.239 54.3879C178.322 52.1911 180.402 49.9919 182.478 47.7903C182.764 47.4875 183.08 47.2126 183.425 46.9656C183.507 46.9072 183.601 46.8669 183.7 46.8475C183.799 46.8281 183.902 46.8301 184 46.8533C184.098 46.8764 184.191 46.9203 184.27 46.9819C184.35 47.0435 184.416 47.1213 184.463 47.2102C184.608 47.4851 184.737 47.809 184.85 48.1817C186.593 53.9942 188.309 59.7543 189.998 65.462C190.019 65.5311 190.054 65.5948 190.102 65.6486C190.151 65.7025 190.21 65.7453 190.277 65.7739C190.344 65.8026 190.416 65.8164 190.489 65.8144C190.562 65.8125 190.633 65.7948 190.699 65.7626L193.415 64.4137C193.708 64.2683 194.041 64.223 194.363 64.2849C194.684 64.3469 194.976 64.5125 195.192 64.7561L195.618 65.2349C196.16 65.8453 196.073 66.3485 195.358 66.7445L191.258 69.0125C191.145 69.0751 191.05 69.166 190.982 69.2764C190.915 69.3867 190.878 69.5125 190.875 69.6415C190.863 70.0072 190.87 70.4114 190.896 70.854C190.931 71.5075 191.198 72.2938 191.251 73.0521C191.261 73.1756 191.327 73.242 191.452 73.2513L195.949 73.5448C196.078 73.5535 196.202 73.5946 196.31 73.6644C196.418 73.7342 196.506 73.8302 196.565 73.9432C196.938 74.6537 196.917 75.2571 196.502 75.7534C195.266 77.242 193.377 76.0119 192.148 76.7877C192.05 76.8483 191.994 76.9368 191.98 77.0533C191.723 79.1919 191.716 80.8728 193.876 81.9876C194.275 82.1926 194.697 82.4197 195.143 82.669C195.401 82.8129 195.595 83.0478 195.686 83.3272C195.778 83.6066 195.761 83.9104 195.639 84.1786L195.516 84.4512C195.458 84.58 195.372 84.6952 195.265 84.7889C195.159 84.8827 195.033 84.953 194.898 84.9952C194.762 85.0375 194.618 85.0507 194.477 85.034C194.335 85.0173 194.199 84.9711 194.077 84.8985C193.683 84.6608 193.255 84.5653 192.792 84.6119C192.742 84.6177 192.695 84.64 192.659 84.6754C192.623 84.7108 192.599 84.7573 192.592 84.8076C192.545 85.1384 192.53 85.5368 192.546 86.0027C192.673 89.8467 192.669 93.6976 192.405 97.5381C192.03 102.969 191.177 108.324 189.847 113.606C189.72 114.111 189.689 114.527 189.752 114.853C189.776 114.979 189.846 115.091 189.947 115.17C190.048 115.249 190.175 115.289 190.305 115.283C191.205 115.239 192.068 115.203 192.891 115.175C193.398 115.161 193.581 115.36 194.049 115.465C194.173 115.493 194.259 115.566 194.306 115.685C194.686 116.632 195.14 117.576 194.32 118.456C194.235 118.545 194.133 118.592 194.014 118.599C193.679 118.617 193.542 118.767 193.211 118.767C191.374 118.777 189.54 118.773 187.707 118.757C186.83 118.75 186.286 118.396 186.075 117.694C185.96 117.312 186.005 116.756 186.212 116.024C188.265 108.714 189.417 101.261 189.668 93.6662C189.67 93.6243 189.68 93.5835 189.699 93.5439C189.709 93.5183 189.719 93.4915 189.731 93.4635C189.743 93.4402 189.748 93.4146 189.748 93.3866C189.842 90.2812 189.781 87.1792 189.565 84.0808C189.509 83.284 189.126 82.6946 188.415 82.3125C187.124 81.623 185.865 80.9637 184.635 80.3346C184.403 80.2156 184.221 80.0186 184.121 79.7787C184.021 79.5387 184.01 79.2714 184.09 79.0242L184.174 78.7621C184.228 78.5969 184.316 78.445 184.433 78.3165C184.551 78.188 184.694 78.0859 184.854 78.0171C185.015 77.9482 185.188 77.9142 185.363 77.9174C185.537 77.9205 185.709 77.9607 185.867 78.0353L188.436 79.2514C188.509 79.2854 188.589 79.3007 188.669 79.2959C188.749 79.2911 188.827 79.2663 188.895 79.2238C188.963 79.1813 189.019 79.1225 189.058 79.0528C189.097 78.9831 189.118 78.9048 189.119 78.825C189.123 78.0982 188.998 77.4074 188.742 76.7528C188.705 76.6573 188.633 76.6072 188.527 76.6025C187.707 76.5641 186.814 76.6654 186.089 76.3369C184.956 75.8267 184.076 74.5163 185.575 73.6951C186.17 73.3701 186.895 73.4435 187.574 73.4644C187.633 73.4667 187.693 73.456 187.749 73.4331C187.805 73.4102 187.855 73.3756 187.897 73.3317C188.45 72.7446 188.214 71.4656 188.056 70.8331C188.03 70.7306 187.964 70.6863 187.859 70.7003C187.195 70.7958 186.583 71.0206 186.022 71.3747C185.881 71.4632 185.724 71.5224 185.56 71.5489C185.396 71.5753 185.228 71.5684 185.067 71.5285C184.905 71.4886 184.754 71.4166 184.622 71.3169C184.49 71.2172 184.379 71.0918 184.298 70.9484L184.146 70.6793C184.021 70.4585 183.986 70.1984 184.048 69.9526C184.11 69.7068 184.265 69.4941 184.48 69.3584L187.109 67.695C187.215 67.628 187.297 67.5292 187.342 67.4129C187.388 67.2967 187.395 67.1691 187.363 67.0485L183.305 52.1829C183.284 52.1041 183.245 52.0314 183.19 51.9712C183.135 51.9109 183.065 51.8649 182.988 51.837C182.688 51.7275 182.404 51.8102 182.137 52.0851C180.283 54.007 178.478 55.9733 176.721 57.9838C176.646 58.07 176.551 58.1224 176.436 58.141C176.051 58.2016 175.672 58.2063 175.299 58.155C169.542 57.3746 163.998 57.3816 158.668 58.176C157.911 58.2901 157.328 58.0945 156.919 57.5889C155.153 55.4153 153.39 53.2417 151.63 51.0682C151.558 50.9794 151.468 50.9065 151.367 50.854C151.265 50.8016 151.153 50.7707 151.038 50.7635C150.924 50.7563 150.809 50.7728 150.701 50.812C150.594 50.8512 150.495 50.9123 150.413 50.9913C150.312 51.0868 150.223 51.2837 150.145 51.5819C148.799 56.7025 147.464 61.8872 146.141 67.1359C146.1 67.297 146.111 67.4664 146.17 67.6214C146.23 67.7764 146.336 67.9094 146.475 68.0025C147.383 68.6106 149.973 69.6834 148.562 71.1721C148.062 71.6962 146.957 71.3048 146.313 71.1092C145.923 70.9903 145.65 71.1185 145.493 71.4936L145.169 72.2763C145.003 72.684 145.123 72.9717 145.532 73.1395C146.496 73.5378 147.696 73.7755 148.146 74.6945C148.205 74.811 148.204 74.9263 148.143 75.0405C147.559 76.1377 146.225 76.7738 145.046 76.6899C144.917 76.6807 144.788 76.7159 144.681 76.7896C144.574 76.8633 144.496 76.9711 144.458 77.0952L144.054 78.4651C144.043 78.5025 144.04 78.5418 144.045 78.5805C144.05 78.6192 144.062 78.6564 144.083 78.6899C144.103 78.7233 144.13 78.7523 144.162 78.775C144.194 78.7976 144.23 78.8135 144.268 78.8215C144.51 78.8728 144.755 78.8029 145.004 78.6119C145.532 78.2088 146.105 77.8827 146.725 77.6334C146.833 77.5915 146.938 77.5961 147.041 77.6474L148.811 78.5105C148.912 78.5598 149.002 78.6294 149.074 78.7148C149.146 78.8002 149.2 78.8995 149.232 79.0066C149.264 79.1136 149.273 79.2261 149.258 79.3367C149.244 79.4474 149.207 79.554 149.149 79.6497C148.445 80.8239 146.193 81.715 144.969 82.2916C144.729 82.4048 144.524 82.5801 144.376 82.799C144.228 83.0179 144.142 83.2724 144.128 83.5356L143.874 88.2637C143.799 89.6615 143.762 91.0593 143.762 92.4571V93.1665C143.762 94.3546 143.794 95.5404 143.86 96.7239C143.938 98.0728 144.01 99.4275 144.078 100.788C144.131 101.85 144.377 103.035 144.441 104.181C144.487 105.027 144.75 105.873 144.793 106.757C144.831 107.536 145.053 108.549 145.208 109.353C145.63 111.541 146.096 113.72 146.605 115.891C147.006 117.597 146.228 118.816 144.328 118.523C135.421 117.153 128.13 113.435 122.83 106.114C119.605 101.659 117.461 96.675 116.401 91.1606C115.554 86.7715 115.31 82.344 115.669 77.878C116.222 71.0148 123.675 72.154 124.738 77.5251C124.986 78.7854 125.216 80.4721 125.427 82.5851C125.498 83.2945 125.727 84.0843 125.779 84.867C125.81 85.284 125.883 85.743 125.997 86.2439C126.101 86.6912 126.153 87.1478 126.156 87.6137C126.156 87.7279 126.179 87.8373 126.226 87.9422C126.294 88.0936 126.351 88.3208 126.395 88.6236C126.606 90.054 127.032 91.8898 127.673 94.131C129.678 101.144 133.704 106.729 141.087 108.867C141.402 108.958 141.606 108.849 141.699 108.539C141.723 108.457 141.715 108.284 141.675 108.018C140.722 101.681 140.376 95.3121 140.637 88.9102C140.682 87.743 140.876 86.167 140.897 84.7797C140.898 84.7427 140.89 84.706 140.875 84.6723C140.859 84.6385 140.837 84.6085 140.809 84.5842C140.781 84.5599 140.748 84.542 140.712 84.5317C140.676 84.5214 140.638 84.519 140.602 84.5246C139.162 84.7517 138.406 85.7302 137.075 84.4756C137.028 84.4299 136.996 84.3706 136.984 84.3064C136.973 84.2423 136.983 84.1766 137.012 84.1192C138.022 82.0819 139.219 82.0609 141.01 81.1559C141.059 81.1309 141.101 81.095 141.133 81.0512C141.165 81.0075 141.185 80.957 141.193 80.9043L141.738 76.9799C141.745 76.9343 141.741 76.8878 141.728 76.8435C141.716 76.7992 141.694 76.7581 141.664 76.7229C141.634 76.6876 141.597 76.659 141.555 76.6388C141.513 76.6187 141.468 76.6075 141.421 76.606C140.316 76.5617 139.174 76.5513 137.994 76.5746C136.178 76.6095 135.26 74.0026 137.216 73.5273C137.277 73.5134 137.803 73.4563 138.793 73.3561C140.292 73.2094 142.048 74.3241 142.389 72.0352C142.611 70.543 143.329 69.2046 141.355 68.5617C140.022 68.126 138.827 67.4958 137.769 66.6711C137.177 66.2075 137.115 65.6822 137.582 65.0951L137.705 64.9414C138.153 64.3799 138.704 64.2494 139.356 64.55L142.516 66.0142C142.59 66.0484 142.67 66.0662 142.752 66.0662C142.833 66.0662 142.914 66.0484 142.988 66.0142C143.062 65.9799 143.128 65.9299 143.18 65.8678C143.233 65.8056 143.272 65.7327 143.294 65.6542C144.83 60.1073 146.395 54.48 147.988 48.7723C148.251 47.8241 148.938 47.272 150.05 47.1159C150.47 47.0553 151.138 47.3255 152.052 47.9266C153.817 49.0844 155.294 50.523 156.483 52.2423C157.225 53.3151 159.386 56.5371 160.797 54.3041C161.251 53.5842 161.522 52.9202 161.709 52.0326C164.393 39.1845 167.072 26.355 169.746 13.5442C169.753 13.5149 169.752 13.4846 169.745 13.4555C169.738 13.4264 169.724 13.3993 169.705 13.3764C169.685 13.3534 169.661 13.3352 169.633 13.3231C169.606 13.311 169.576 13.3053 169.546 13.3065C167.744 13.3729 165.974 13.6315 164.186 13.4917C161.973 13.3205 159.995 13.1563 157.972 12.674C156.976 12.4364 156.191 11.1504 156.522 10.1929C156.623 9.89939 156.923 9.50801 157.423 9.01878C160.414 6.07874 163.42 3.155 166.442 0.247571C166.526 0.168362 166.626 0.115946 166.741 0.0903192C167.855 -0.158956 168.979 -0.225351 170.112 -0.108867C175.693 0.467726 179.74 3.25284 183.453 7.23309C183.624 7.41713 183.899 7.5837 184.276 7.7328C184.382 7.77374 184.496 7.78227 184.604 7.75726C187.128 7.16087 189.684 7.00595 192.272 7.2925C193.095 7.38335 193.956 7.47421 194.855 7.56507C194.985 7.57926 195.117 7.56297 195.24 7.51749C195.363 7.47201 195.475 7.39858 195.565 7.30298C195.913 6.93955 196.279 6.51206 196.663 6.0205C198.93 3.12006 201.738 1.06179 205.088 -0.154298C205.346 -0.24733 205.627 -0.25469 205.887 -0.175264C211.255 1.46948 215.758 4.44331 219.396 8.74621C220.737 10.3327 221.103 11.3112 218.767 11.9961C215.388 12.9862 212.003 12.9548 208.611 11.9017C208.303 11.8086 208.118 11.9181 208.055 12.2302C207.991 12.5331 208.017 12.9117 208.132 13.3659C212.491 30.7895 215.889 48.3972 218.327 66.1889C218.369 66.5034 218.327 67.0765 218.474 67.5378C218.756 68.4149 218.675 69.4842 218.781 70.0992C218.907 70.8238 218.996 71.4516 219.048 71.9828C219.245 74.0725 219.629 76.1552 219.769 78.2519C219.802 78.7155 219.875 79.3341 219.988 80.1075C220.107 80.9357 220.104 81.7988 220.22 82.6061C220.386 83.7266 220.469 84.8542 220.466 85.9888C220.466 86.047 220.478 86.0994 220.501 86.146C220.516 86.1786 220.532 86.2112 220.551 86.2439C220.567 86.2741 220.576 86.3068 220.579 86.3417C220.87 89.6265 221.21 94.3476 221.599 100.505C221.778 103.345 221.869 105.655 221.874 107.435C221.877 107.756 222.001 107.987 222.011 108.368C222.077 110.555 222.137 112.742 222.191 114.927C222.193 115.048 222.254 115.117 222.374 115.133C223.603 115.303 224.843 115.325 226.093 115.199C226.138 115.195 226.182 115.2 226.224 115.213C226.266 115.226 226.304 115.248 226.336 115.276C226.486 115.414 226.538 115.543 226.491 115.664C226.43 115.827 226.45 115.857 226.551 115.755ZM119.178 76.2601C118.632 80.139 118.794 84.591 119.244 88.358C120.807 101.41 127.94 112.089 141.464 115.136C142.423 115.353 142.86 114.975 142.773 114.001L142.745 113.721C142.653 112.724 142.118 112.109 141.14 111.876C126.325 108.336 122.503 90.9544 122.197 78.2659C122.171 77.2618 121.697 76.5187 120.775 76.0364C120.268 75.7732 119.811 75.7429 119.403 75.9455C119.271 76.0131 119.196 76.1179 119.178 76.2601Z" fill="#1C778B"/>
<path d="M179.459 27.5676C180.563 27.5676 181.458 26.679 181.458 25.5828C181.458 24.4865 180.563 23.5979 179.459 23.5979C178.355 23.5979 177.46 24.4865 177.46 25.5828C177.46 26.679 178.355 27.5676 179.459 27.5676Z" fill="#1C778B"/>
<path d="M198.472 27.5676C199.576 27.5676 200.471 26.679 200.471 25.5828C200.471 24.4865 199.576 23.5979 198.472 23.5979C197.368 23.5979 196.473 24.4865 196.473 25.5828C196.473 26.679 197.368 27.5676 198.472 27.5676Z" fill="#1C778B"/>
<path d="M187.109 33.3475C186.919 33.3941 186.764 33.3778 186.645 33.2986C186.124 32.9526 185.434 32.6766 185.177 32.114C184.604 30.842 186.543 29.5665 187.556 29.2205C188.246 28.9852 188.936 28.9514 189.625 29.1192C190.903 29.4302 193.51 30.7861 191.92 32.4844C191.807 32.6055 191.476 32.8082 190.927 33.0924C189.288 33.9451 189.351 35.4337 189.527 37.2579C189.536 37.379 189.481 37.4466 189.361 37.4606L188.221 37.5968C188.088 37.6132 188.011 37.5549 187.993 37.4221C187.859 36.4891 188.13 34.1827 187.408 33.4314C187.326 33.3452 187.227 33.3172 187.109 33.3475Z" fill="#1C778B"/>
<path d="M59.1535 137.072L50.6022 137.057C50.3204 137.057 50.0916 137.283 50.0911 137.563L50.0783 144.81C50.0778 145.09 50.3059 145.318 50.5877 145.318L59.139 145.333C59.4208 145.333 59.6496 145.107 59.6501 144.827L59.6628 137.579C59.6633 137.3 59.4353 137.072 59.1535 137.072Z" fill="#1C778B"/>
<path d="M108.128 145.294L99.858 145.444C99.7983 145.445 99.7389 145.434 99.6835 145.412C99.628 145.39 99.5775 145.357 99.5349 145.316C99.4924 145.274 99.4586 145.225 99.4355 145.17C99.4124 145.115 99.4005 145.056 99.4005 144.997L99.39 137.512C99.39 137.393 99.4374 137.279 99.5219 137.195C99.6064 137.112 99.721 137.064 99.8404 137.064L108.121 137.068C108.24 137.068 108.355 137.115 108.439 137.199C108.524 137.283 108.571 137.397 108.571 137.515V144.847C108.571 144.964 108.525 145.077 108.442 145.161C108.359 145.244 108.246 145.292 108.128 145.294Z" fill="#1C778B"/>
<path d="M34.4742 197.565C34.4625 197.595 34.4519 197.625 34.4425 197.656C34.4393 197.665 34.4341 197.673 34.4272 197.68C34.4203 197.686 34.412 197.692 34.4028 197.695C34.3936 197.698 34.3839 197.699 34.3743 197.697C34.3647 197.696 34.3555 197.692 34.3475 197.687C34.0894 197.517 33.9604 197.272 33.9604 196.953C33.9487 177.319 33.9405 157.686 33.9358 138.053C33.9358 137.819 34.0801 137.557 34.2525 137.424C34.3692 137.338 34.5095 137.291 34.6537 137.288L42.4519 137.274C42.4796 137.273 42.5071 137.278 42.5326 137.288C42.5581 137.298 42.581 137.314 42.5997 137.334C42.7076 137.441 42.8331 137.466 42.9762 137.41C43.0231 137.392 43.0738 137.384 43.1241 137.39C43.1744 137.395 43.2226 137.412 43.2646 137.44C43.3066 137.468 43.3411 137.506 43.365 137.55C43.389 137.594 43.4017 137.643 43.402 137.693L43.3985 197.39C43.3988 197.44 43.3855 197.49 43.36 197.533C43.3344 197.577 43.2975 197.612 43.2532 197.637C43.2089 197.661 43.1588 197.673 43.1082 197.671C43.0576 197.67 43.0084 197.655 42.9657 197.628C42.8554 197.56 42.7545 197.566 42.663 197.645C42.5856 197.713 42.4953 197.747 42.3921 197.747C39.8935 197.747 37.3962 197.745 34.9 197.743C34.8296 197.743 34.7686 197.728 34.717 197.698C34.6607 197.66 34.6056 197.611 34.5516 197.551C34.5164 197.511 34.4906 197.516 34.4742 197.565Z" fill="#1C778B"/>
<path d="M19.0467 159.118L18.906 159.125C18.8857 159.127 18.8653 159.124 18.8462 159.117C18.827 159.111 18.8094 159.1 18.7946 159.086C18.7797 159.072 18.7679 159.056 18.7598 159.037C18.7517 159.019 18.7476 158.999 18.7476 158.979L18.7406 148.914C18.7406 148.677 18.6461 148.449 18.4776 148.279C18.309 148.11 18.0799 148.013 17.8397 148.009C15.7353 147.974 13.5617 147.934 11.3189 147.887C9.78813 147.856 9.64033 148.775 9.6333 150.075C9.56526 163.438 9.53828 176.769 9.55235 190.069C9.55235 190.342 9.66173 190.603 9.85642 190.796C10.0511 190.988 10.3152 191.097 10.5905 191.097L17.8045 191.083C18.4286 191.083 18.7406 190.774 18.7406 190.157L18.7547 180.554C18.7547 180.535 18.7584 180.516 18.7656 180.499C18.7729 180.481 18.7835 180.466 18.7969 180.452C18.8103 180.439 18.8262 180.428 18.8437 180.421C18.8612 180.414 18.88 180.41 18.8989 180.41L27.3059 180.4C27.4273 180.4 27.5436 180.448 27.6294 180.533C27.7152 180.618 27.7634 180.734 27.7634 180.854C27.7728 183.654 27.774 186.44 27.7669 189.21C27.7622 191.714 27.5675 193.411 27.1828 194.301C26.615 195.615 25.6508 196.571 24.2901 197.17C23.476 197.529 22.2303 197.728 20.5529 197.768C14.4767 197.914 9.61804 197.899 5.977 197.722C5.47965 197.699 4.90605 197.532 4.2562 197.222C0.59991 195.482 0.31838 190.81 0.455622 187.427C0.466179 187.123 0.332461 186.889 0.328942 186.617C0.181142 176.743 0.095508 166.87 0.0720477 156.997C0.0720477 156.603 0.0239529 155.46 -0.0722344 153.566C-0.212996 150.732 0.547118 148.132 1.13832 145.497C2.09902 141.209 9.82684 140.842 12.9834 140.915C16.2374 140.99 18.642 141.062 20.1975 141.132C27.218 141.454 28.1892 147.174 27.9781 152.835C27.9053 154.764 27.8115 156.8 27.6965 158.944C27.6801 159.239 27.5229 159.387 27.225 159.387H19.2262C19.1676 159.387 19.1382 159.358 19.1382 159.3C19.1382 159.267 19.1371 159.234 19.1347 159.199C19.1348 159.188 19.1325 159.176 19.128 159.166C19.1235 159.156 19.1169 159.147 19.1086 159.139C19.1003 159.132 19.0905 159.126 19.0799 159.122C19.0692 159.119 19.0579 159.117 19.0467 159.118Z" fill="#1C778B"/>
<path d="M230.999 173.166C230.996 172.807 230.813 172.626 230.45 172.621C227.674 172.591 225.127 172.579 222.806 172.586C222.759 172.586 222.703 172.564 222.637 172.52C222.548 172.461 222.45 172.435 222.342 172.439C220.463 172.521 218.669 172.171 216.961 171.391C214.508 170.269 213.544 168.082 213.495 165.499C213.394 160.027 213.379 154.554 213.449 149.082C213.475 147.179 213.672 145.805 214.04 144.962C215.395 141.873 218.316 141.069 221.624 141.275C221.87 141.289 221.972 141.146 222.191 141.143C225.586 141.087 229.042 140.887 232.431 141.181C236.868 141.565 239.142 143.571 239.67 148.041C240.068 151.426 240.19 154.335 240.036 156.77C239.991 157.471 239.556 157.831 238.73 157.85C236.717 157.896 234.704 157.915 232.691 157.906C232.343 157.906 232.083 157.787 231.724 157.762C231.606 157.753 231.511 157.703 231.439 157.612C231.141 157.237 230.994 156.81 230.999 156.33C231.015 154.023 231.015 151.727 230.999 149.442C230.996 149.132 230.871 148.835 230.652 148.616C230.432 148.396 230.135 148.271 229.823 148.268L223.419 148.187C222.804 148.18 222.492 148.483 222.483 149.096C222.41 153.963 222.376 158.79 222.381 163.577C222.381 164.327 222.62 164.911 223.098 165.328C223.446 165.629 223.995 165.78 224.745 165.782C231.15 165.81 239.617 164 239.979 173.278C240.19 178.69 240.237 184.102 240.12 189.514C240.08 191.349 239.874 192.731 239.501 193.658C238.468 196.216 236.425 197.576 233.371 197.74C228.3 198.009 223.179 198.32 218.144 197.24C211.904 195.901 213.46 186.302 213.484 181.756C213.485 181.698 213.497 181.641 213.519 181.588C213.542 181.536 213.575 181.488 213.616 181.448C213.657 181.408 213.706 181.376 213.76 181.355C213.813 181.335 213.87 181.324 213.928 181.326L222.303 181.487C222.379 181.488 222.452 181.52 222.505 181.574C222.558 181.628 222.588 181.701 222.588 181.777V189.877C222.588 190.019 222.617 190.161 222.672 190.292C222.727 190.424 222.808 190.543 222.911 190.643C223.013 190.743 223.134 190.822 223.267 190.875C223.4 190.929 223.543 190.955 223.686 190.953L230.379 190.862C230.621 190.86 230.789 190.748 230.883 190.527C231.059 190.115 230.988 189.566 230.988 189.171C231.021 183.708 231.025 178.373 230.999 173.166Z" fill="#1C778B"/>
<path d="M134.577 197.355C134.598 197.392 134.605 197.425 134.598 197.453C134.591 197.467 134.573 197.481 134.545 197.495C134.198 197.663 133.97 197.747 133.863 197.747C130.313 197.747 126.763 197.747 123.214 197.747C122.909 197.747 122.589 197.51 122.253 197.037C121.824 196.433 121.863 195.419 121.694 194.72C121.377 193.437 121.289 193.074 121.43 193.634C121.561 194.16 121.579 194.157 121.483 193.623L112.115 141.751C112.04 141.329 112.218 141.118 112.65 141.118L120.744 141.132C121.072 141.132 121.23 141.296 121.219 141.625C121.216 141.671 121.239 141.707 121.286 141.733C121.372 141.777 121.419 141.848 121.426 141.946C121.457 142.368 121.556 143.144 121.725 144.274C123.75 157.844 125.775 171.414 127.799 184.985C127.888 185.567 127.925 185.981 127.908 186.225C127.905 186.27 127.91 186.315 127.925 186.358C127.939 186.401 127.961 186.441 127.991 186.475C128.02 186.509 128.056 186.537 128.096 186.557C128.136 186.577 128.18 186.589 128.225 186.592L128.317 186.599C128.407 186.606 128.497 186.579 128.568 186.524C128.639 186.468 128.686 186.387 128.7 186.299L135.668 141.443C135.676 141.393 135.702 141.348 135.741 141.316C135.781 141.284 135.831 141.267 135.882 141.268C136.312 141.282 136.558 141.122 136.952 141.122C139.549 141.119 142.111 141.12 144.638 141.125C144.669 141.125 144.7 141.131 144.729 141.144C144.758 141.157 144.784 141.175 144.805 141.199C144.826 141.222 144.842 141.25 144.852 141.28C144.862 141.31 144.866 141.342 144.863 141.373C144.729 142.703 144.542 144.022 144.3 145.329C141.335 161.397 138.379 177.467 135.432 193.539C135.226 194.674 135.024 195.809 134.827 196.946C134.815 197.014 134.789 197.07 134.749 197.114C134.702 197.163 134.651 197.211 134.595 197.257C134.559 197.285 134.553 197.318 134.577 197.355Z" fill="#1C778B"/>
<path d="M256.304 172.23V190.709C256.304 190.867 256.385 190.946 256.547 190.946L272.348 190.95C272.461 190.95 272.571 190.994 272.651 191.074C272.732 191.153 272.777 191.26 272.777 191.373V197.219C272.777 197.359 272.721 197.493 272.621 197.592C272.522 197.691 272.386 197.747 272.245 197.747H247.795C247.654 197.747 247.519 197.691 247.419 197.592C247.32 197.493 247.264 197.359 247.264 197.219V141.607C247.264 141.544 247.276 141.48 247.301 141.421C247.325 141.363 247.361 141.309 247.406 141.264C247.451 141.219 247.505 141.183 247.564 141.159C247.622 141.134 247.686 141.122 247.749 141.122H271.566C271.996 141.122 272.209 141.335 272.207 141.761L272.2 147.922C272.2 147.996 272.17 148.067 272.117 148.12C272.064 148.172 271.993 148.201 271.918 148.201L256.575 148.208C256.394 148.208 256.304 148.299 256.304 148.481V164.461C256.304 164.741 256.445 164.881 256.726 164.881L268.818 164.888C268.965 164.888 269.099 164.903 269.216 164.933C269.417 164.989 269.48 165.114 269.402 165.307C269.376 165.368 269.386 165.424 269.43 165.475C269.454 165.503 269.481 165.532 269.511 165.562C269.521 165.571 269.525 165.583 269.525 165.597L269.529 171.471C269.529 171.844 269.341 172.03 268.966 172.03L256.501 172.037C256.37 172.037 256.304 172.102 256.304 172.23Z" fill="#1C778B"/>
<path d="M306.303 197.39C306.338 197.381 306.371 197.373 306.401 197.366C306.434 197.361 306.445 197.373 306.433 197.401L306.366 197.565C306.319 197.674 306.237 197.729 306.12 197.729L298.149 197.754C298.023 197.753 297.899 197.721 297.791 197.658C297.682 197.595 297.592 197.505 297.53 197.397C297.302 197.003 297.095 196.48 296.907 195.828C293.737 184.818 290.546 173.814 287.332 162.815C287.265 162.595 287.332 162.319 287.117 162.085C287.037 161.999 286.99 161.898 286.976 161.781L286.885 160.956C286.871 160.812 286.79 160.741 286.642 160.743C286.56 160.746 286.487 160.719 286.424 160.663C286.394 160.638 286.358 160.621 286.32 160.615C286.281 160.61 286.242 160.615 286.206 160.631C286.171 160.647 286.141 160.672 286.119 160.705C286.098 160.737 286.086 160.775 286.086 160.813L286.058 197.306C286.058 197.423 286.011 197.535 285.929 197.618C285.846 197.7 285.734 197.747 285.618 197.747H278.224C278.191 197.747 278.158 197.733 278.135 197.71C278.111 197.686 278.098 197.654 278.098 197.621V141.478C278.098 141.334 278.169 141.275 278.312 141.303C278.39 141.317 278.462 141.297 278.53 141.244C278.624 141.169 278.731 141.131 278.851 141.129C281.434 141.115 284.014 141.111 286.593 141.118C287.13 141.12 287.476 141.379 287.631 141.894C291.248 153.915 294.707 165.987 298.008 178.111C298.022 178.164 298.056 178.209 298.104 178.239C298.152 178.268 298.209 178.278 298.265 178.268C298.458 178.229 298.553 178.078 298.55 177.817C298.522 165.684 298.506 153.552 298.501 141.419C298.501 141.293 298.562 141.249 298.684 141.286C298.783 141.318 298.874 141.3 298.958 141.23C299.048 141.158 299.15 141.122 299.265 141.122H306.025C306.142 141.122 306.255 141.168 306.338 141.251C306.421 141.333 306.468 141.445 306.468 141.562L306.5 196.971C306.5 197.071 306.46 197.151 306.38 197.212C306.336 197.242 306.296 197.278 306.261 197.32C306.195 197.392 306.209 197.416 306.303 197.39Z" fill="#1C778B"/>
<path d="M311.785 197.579C311.771 197.604 311.756 197.63 311.74 197.656C311.721 197.686 311.694 197.695 311.659 197.684C311.558 197.651 311.507 197.582 311.507 197.477C311.51 196.949 311.558 196.424 311.652 195.905C314.833 178.069 318.013 160.232 321.192 142.394C321.201 142.347 321.255 142.205 321.354 141.967C321.41 141.832 321.409 141.687 321.35 141.53C321.306 141.412 321.346 141.341 321.47 141.317C321.804 141.254 322.008 141.122 322.339 141.122C326.055 141.124 329.761 141.124 333.456 141.122C333.836 141.122 334.061 141.306 334.131 141.674C337.519 159.354 340.92 177.148 344.333 195.056C344.425 195.538 344.745 196.597 344.685 197.257C344.654 197.581 344.476 197.743 344.15 197.743L336.662 197.747C336.419 197.747 336.185 197.665 335.997 197.513C335.81 197.361 335.681 197.15 335.634 196.915C335.568 196.596 335.52 196.232 335.49 195.825C335.419 194.923 335.096 194.112 335.099 193.165C335.099 193.069 335.071 192.975 335.018 192.893C335.002 192.865 334.984 192.837 334.965 192.809C334.949 192.781 334.937 192.752 334.93 192.721C334.545 190.42 334.147 188.12 333.734 185.823C333.734 185.816 333.736 185.609 333.741 185.201C333.741 184.803 333.449 184.632 333.065 184.628C329.565 184.598 326.083 184.598 322.621 184.628C322.557 184.629 322.494 184.643 322.435 184.669C322.377 184.695 322.324 184.733 322.281 184.78C322.238 184.827 322.205 184.883 322.184 184.943C322.163 185.003 322.155 185.068 322.16 185.131C322.185 185.472 322.161 185.859 322.086 186.295C321.663 188.748 321.255 191.205 320.861 193.665C320.734 194.462 320.759 195.279 320.506 196.041C320.27 196.744 320.703 197.568 319.721 197.736C319.691 197.743 319.66 197.747 319.629 197.747C317.145 197.73 314.632 197.764 312.092 197.848C312.031 197.85 311.983 197.839 311.947 197.813C311.9 197.78 311.875 197.737 311.87 197.684C311.858 197.532 311.83 197.497 311.785 197.579ZM332.456 177.464L327.966 151.476C327.95 151.38 327.898 151.31 327.811 151.266C327.452 151.084 327.251 151.169 327.206 151.521C326.379 158.287 325.102 165.007 324.155 171.761C323.94 173.295 323.789 175.312 323.571 177.157C323.51 177.662 323.735 177.915 324.246 177.915H332.073C332.38 177.915 332.508 177.765 332.456 177.464Z" fill="#1C778B"/>
<path d="M177.808 153.922L177.872 153.81C177.904 153.756 177.95 153.712 178.004 153.682C178.059 153.651 178.12 153.637 178.181 153.639L181.049 153.719C181.103 153.721 181.155 153.712 181.205 153.692C181.254 153.673 181.299 153.644 181.337 153.607C181.376 153.571 181.406 153.527 181.426 153.478C181.447 153.429 181.458 153.377 181.458 153.324V146.458C181.458 146.319 181.513 146.185 181.612 146.087C181.711 145.989 181.846 145.934 181.986 145.934H189.903C190.03 145.934 190.112 145.993 190.15 146.112C190.173 146.189 190.222 146.203 190.297 146.154C190.448 146.056 190.52 146.095 190.516 146.273L190.421 153.265C190.42 153.318 190.429 153.371 190.449 153.421C190.469 153.47 190.498 153.515 190.535 153.554C190.572 153.592 190.617 153.623 190.666 153.644C190.715 153.665 190.768 153.676 190.822 153.677C192.366 153.71 193.845 153.716 195.259 153.695C195.576 153.691 195.777 153.838 196.1 153.866C196.194 153.875 196.234 153.925 196.22 154.016C196.215 154.047 196.194 154.068 196.157 154.079C196.082 154.1 196.1 154.14 196.213 154.198C196.419 154.301 196.526 154.516 196.533 154.845C196.571 156.503 196.545 158.106 196.456 159.653C196.444 159.865 196.351 160.064 196.196 160.209C196.041 160.355 195.835 160.436 195.622 160.436H190.804C190.586 160.436 190.477 160.545 190.477 160.764L190.505 189.954C190.505 190.139 190.58 190.318 190.712 190.449C190.845 190.581 191.025 190.655 191.212 190.656L195.632 190.667C195.874 190.668 196.106 190.763 196.277 190.933C196.448 191.102 196.545 191.332 196.547 191.572C196.557 193.415 196.538 195.15 196.491 196.779C196.482 197.107 196.446 197.333 196.385 197.457C196.28 197.669 196.102 197.695 195.851 197.537C195.844 197.533 195.836 197.531 195.828 197.531C195.82 197.53 195.813 197.532 195.806 197.536C195.8 197.539 195.794 197.545 195.791 197.551C195.788 197.557 195.786 197.565 195.787 197.572L195.794 197.754C195.794 197.798 195.773 197.82 195.731 197.82C192.439 197.843 190.381 197.842 189.555 197.816C188.382 197.777 187.099 197.552 185.705 197.142C184.15 196.683 183.052 195.747 182.411 194.332C182.049 193.532 181.803 192.666 181.711 191.677C181.637 190.904 181.461 190.136 181.461 189.384C181.459 179.826 181.458 170.263 181.458 160.698C181.458 160.525 181.371 160.439 181.197 160.439L177.854 160.432C177.805 160.432 177.779 160.408 177.777 160.359C177.774 160.326 177.774 160.295 177.777 160.265C177.779 160.164 177.739 160.142 177.657 160.198C177.617 160.221 177.573 160.233 177.523 160.233C177.483 160.233 177.443 160.224 177.406 160.209C177.369 160.193 177.336 160.17 177.308 160.142C177.28 160.113 177.258 160.079 177.243 160.042C177.228 160.005 177.22 159.965 177.221 159.926C177.251 158.083 177.245 156.243 177.203 154.408C177.198 154.175 177.309 153.964 177.534 153.775C177.602 153.717 177.651 153.73 177.682 153.814C177.693 153.849 177.706 153.882 177.72 153.915C177.746 153.978 177.776 153.98 177.808 153.922Z" fill="#1C778B"/>
<path d="M83.7478 197.579C83.7384 197.597 83.7232 197.615 83.7021 197.631C83.6716 197.655 83.6423 197.668 83.6141 197.673C83.4428 197.701 83.3572 197.629 83.3572 197.456C83.3595 185.668 83.3584 173.883 83.3537 162.099C83.3537 160.988 82.7414 160.44 81.5167 160.457C80.1373 160.478 78.7578 160.499 77.3783 160.52C76.752 160.531 76.2499 160.733 75.8722 161.124C75.5907 161.413 75.4347 161.872 75.4042 162.501C75.2916 164.811 75.4218 167.764 75.4218 169.417C75.4265 178.721 75.4265 187.962 75.4218 197.139C75.4218 197.299 75.358 197.453 75.2445 197.566C75.131 197.679 74.977 197.743 74.8165 197.743C72.2922 197.75 69.7373 197.751 67.152 197.747C66.8177 197.747 66.691 197.614 66.3567 197.568C66.2511 197.554 66.1972 197.494 66.1948 197.387L66.0822 193.071C66.0799 192.971 66.1092 192.881 66.1702 192.802C66.2242 192.734 66.2511 192.662 66.2511 192.585C66.2511 179.739 66.2511 167.024 66.2511 154.439C66.2511 153.948 66.4998 153.702 66.9972 153.702L74.5842 153.705C74.6607 153.705 74.7365 153.721 74.8069 153.75C74.8773 153.78 74.9409 153.824 74.9938 153.879C75.0468 153.933 75.088 153.998 75.115 154.07C75.1419 154.141 75.1541 154.216 75.1508 154.292L75.098 155.536C75.0957 155.581 75.1067 155.625 75.1297 155.664C75.1527 155.702 75.1866 155.733 75.2272 155.753C75.2678 155.772 75.3133 155.779 75.3579 155.773C75.4025 155.767 75.4443 155.748 75.4781 155.718C78.5748 153.027 83.6211 153.059 87.3372 154.198C91.1026 155.351 92.3695 157.605 92.373 161.397C92.3777 167.57 92.3836 173.744 92.3906 179.918C92.3906 180.127 92.5208 180.351 92.5208 180.623C92.5208 182.399 92.5208 184.173 92.5208 185.946C92.5208 186.169 92.3871 186.403 92.3871 186.648C92.3824 190.294 92.3812 193.818 92.3836 197.219C92.3836 197.568 92.2064 197.743 91.8522 197.743L84.0681 197.747C84.0399 197.747 83.9813 197.715 83.8921 197.652C83.8569 197.629 83.8299 197.6 83.8112 197.565C83.7877 197.528 83.7666 197.532 83.7478 197.579Z" fill="#1C778B"/>
<path d="M156.768 179.344C156.652 183.108 156.821 186.292 156.768 189.444C156.761 189.95 157.021 190.223 157.187 190.688C157.207 190.742 157.241 190.789 157.287 190.825C157.332 190.86 157.386 190.883 157.444 190.89C157.88 190.943 158.292 191.086 158.714 191.09C160.882 191.093 163.243 191.278 165.376 190.918C165.484 190.902 165.54 190.839 165.545 190.73C165.603 189.281 165.655 187.831 165.699 186.382C165.702 186.28 165.74 186.176 165.815 186.071C165.833 186.047 165.846 186.019 165.852 185.99C165.858 185.96 165.857 185.93 165.851 185.9C165.771 185.492 165.912 185.183 166.273 184.971C166.379 184.908 166.488 184.898 166.6 184.943C166.736 184.996 166.865 184.986 166.987 184.911C167.107 184.839 167.235 184.803 167.371 184.803H173.191C173.32 184.803 173.442 184.833 173.557 184.894C173.658 184.95 173.765 184.966 173.878 184.943C174 184.919 174.104 184.951 174.191 185.037C174.807 185.621 174.631 186.099 174.638 186.844C174.661 188.889 174.531 190.744 174.247 192.407C173.547 196.537 170.38 197.285 166.825 197.771C163.303 198.253 159.235 197.956 155.417 197.775C154.79 197.744 154.224 197.696 153.717 197.631C151.475 197.341 149.508 195.674 148.674 193.7C148.315 192.854 148.123 191.503 148.097 189.646C147.953 179.278 148.189 170.161 148.097 160.925C148.069 158.042 148.959 155.47 151.989 154.645C154.284 154.023 156.859 153.761 159.717 153.859C159.79 153.861 159.855 153.851 159.914 153.828C159.956 153.811 159.997 153.794 160.037 153.775C160.082 153.754 160.126 153.743 160.171 153.74C162.876 153.603 165.577 153.63 168.275 153.821C169.737 153.923 170.857 154.193 171.636 154.631C172.804 155.288 173.636 156.232 174.131 157.462C174.429 158.205 174.586 159.392 174.603 161.023C174.659 166.677 174.676 172.303 174.655 177.901C174.655 178.066 174.589 178.224 174.471 178.341C174.353 178.458 174.192 178.523 174.025 178.523C169.11 178.528 164.154 178.529 159.157 178.527C158.658 178.527 158.133 178.628 157.637 178.698C157.518 178.714 157.412 178.761 157.32 178.838C157.184 178.952 157.075 179.091 156.993 179.254C156.967 179.303 156.928 179.325 156.874 179.32C156.843 179.318 156.81 179.322 156.775 179.334C156.77 179.336 156.768 179.34 156.768 179.344ZM165.702 160.673C165.701 160.602 165.673 160.535 165.622 160.486C165.572 160.436 165.503 160.409 165.432 160.41L156.917 160.483C156.846 160.484 156.778 160.513 156.728 160.563C156.678 160.613 156.651 160.681 156.651 160.751L156.751 172.094C156.752 172.164 156.781 172.232 156.831 172.281C156.882 172.33 156.95 172.358 157.021 172.357L165.537 172.283C165.608 172.283 165.675 172.254 165.725 172.204C165.775 172.154 165.802 172.086 165.802 172.016L165.702 160.673Z" fill="#1C778B"/>
<path d="M50.1128 196.883L50.141 154.565C50.141 154.452 50.1634 154.339 50.2071 154.235C50.2508 154.13 50.3148 154.035 50.3955 153.955C50.4763 153.874 50.5721 153.811 50.6775 153.767C50.783 153.724 50.896 153.702 51.0102 153.702H58.7309C58.8451 153.702 58.9581 153.724 59.0636 153.767C59.169 153.811 59.2649 153.874 59.3456 153.955C59.4263 154.035 59.4903 154.13 59.534 154.235C59.5777 154.339 59.6001 154.452 59.6001 154.565L59.5649 196.883C59.5649 196.997 59.5425 197.109 59.4988 197.214C59.4551 197.318 59.3911 197.414 59.3104 197.494C59.2297 197.574 59.1338 197.637 59.0284 197.681C58.9229 197.724 58.8099 197.747 58.6958 197.747H50.982C50.7515 197.747 50.5304 197.656 50.3674 197.494C50.2044 197.332 50.1128 197.112 50.1128 196.883Z" fill="#1C778B"/>
<path d="M99.3971 197.142V154.306C99.3971 154.146 99.4612 153.992 99.5754 153.879C99.6896 153.765 99.8444 153.702 100.006 153.702H107.748C107.909 153.702 108.064 153.765 108.178 153.879C108.292 153.992 108.357 154.146 108.357 154.306V197.142C108.357 197.302 108.292 197.456 108.178 197.569C108.064 197.683 107.909 197.747 107.748 197.747H100.006C99.8444 197.747 99.6896 197.683 99.5754 197.569C99.4612 197.456 99.3971 197.302 99.3971 197.142Z" fill="#1C778B"/>
<g clip-path="url(#clip1_3_4)">
<path d="M158.95 73.1988C159.902 73.1988 160.674 72.4322 160.674 71.4865C160.674 70.5409 159.902 69.7742 158.95 69.7742C157.998 69.7742 157.226 70.5409 157.226 71.4865C157.226 72.4322 157.998 73.1988 158.95 73.1988Z" fill="#1C778B"/>
<path d="M173.399 73.1954C174.349 73.1954 175.12 72.4303 175.12 71.4866C175.12 70.5428 174.349 69.7778 173.399 69.7778C172.449 69.7778 171.678 70.5428 171.678 71.4866C171.678 72.4303 172.449 73.1954 173.399 73.1954Z" fill="#1C778B"/>
<path d="M167.262 78.217L166.759 78.6328C166.637 78.733 166.572 78.8611 166.565 79.0172L166.47 81.3131C166.468 81.3506 166.456 81.3868 166.437 81.418C166.417 81.4492 166.39 81.4744 166.357 81.4913C166.259 81.5426 166.219 81.623 166.238 81.7325C166.268 81.8932 166.205 81.9479 166.048 81.8967C165.935 81.8594 165.807 81.8548 165.664 81.8827C165.578 81.8996 165.488 81.8964 165.403 81.8732C165.318 81.85 165.239 81.8075 165.173 81.7491C165.107 81.6906 165.056 81.6176 165.022 81.536C164.989 81.4543 164.975 81.3661 164.982 81.2782C165.111 79.5985 164.816 78.0038 164.098 76.4942C164.055 76.4025 164.035 76.3014 164.041 76.2002C164.048 76.099 164.08 76.0009 164.134 75.9149C164.189 75.829 164.265 75.7579 164.354 75.7083C164.444 75.6587 164.545 75.6321 164.647 75.631C165.45 75.6264 166.306 75.6241 167.216 75.6241C167.57 75.6241 167.833 75.6998 168.004 75.8512C168.733 76.4907 168.124 77.1372 167.86 77.8046C167.792 77.9747 167.686 78.0714 167.543 78.0947C167.438 78.1086 167.344 78.1494 167.262 78.217Z" fill="#1C778B"/>
</g>
</g>
<defs>
<clipPath id="clip0_3_4">
<rect width="345" height="198" fill="white"/>
</clipPath>
<clipPath id="clip1_3_4">
<rect width="175.413" height="93.8571" fill="white"/>
</clipPath>
</defs>
</svg>
