<svg width="237" height="237" viewBox="0 0 237 237" fill="none" xmlns="http://www.w3.org/2000/svg">
<path d="M128.375 108.625C134.234 108.625 139.962 106.888 144.834 103.632C149.706 100.377 153.503 95.7503 155.745 90.337C157.987 84.9237 158.574 78.9671 157.431 73.2205C156.288 67.4738 153.466 62.1951 149.323 58.052C145.18 53.9088 139.901 51.0873 134.155 49.9442C128.408 48.8012 122.451 49.3878 117.038 51.6301C111.625 53.8723 106.998 57.6694 103.743 62.5412C100.487 67.413 98.75 73.1407 98.75 79C98.75 86.857 101.871 94.3923 107.427 99.948C112.983 105.504 120.518 108.625 128.375 108.625ZM128.375 69.125C130.328 69.125 132.237 69.7042 133.861 70.7892C135.485 71.8743 136.751 73.4166 137.498 75.221C138.246 77.0254 138.441 79.011 138.06 80.9265C137.679 82.8421 136.739 84.6016 135.358 85.9827C133.977 87.3637 132.217 88.3042 130.302 88.6853C128.386 89.0663 126.4 88.8707 124.596 88.1233C122.792 87.3759 121.249 86.1102 120.164 84.4863C119.079 82.8623 118.5 80.9531 118.5 79C118.5 76.381 119.54 73.8693 121.392 72.0173C123.244 70.1654 125.756 69.125 128.375 69.125ZM168.961 107.243C174.739 98.9577 177.836 89.1003 177.836 79C177.836 68.8997 174.739 59.0423 168.961 50.7575C171.801 49.8432 174.766 49.3768 177.75 49.375C185.607 49.375 193.142 52.4962 198.698 58.052C204.254 63.6077 207.375 71.143 207.375 79C207.375 86.857 204.254 94.3923 198.698 99.948C193.142 105.504 185.607 108.625 177.75 108.625C174.766 108.623 171.801 108.157 168.961 107.243ZM128.375 128.375C69.125 128.375 69.125 167.875 69.125 167.875V187.625H187.625V167.875C187.625 167.875 187.625 128.375 128.375 128.375ZM88.875 167.875C88.875 165.011 92.035 148.125 128.375 148.125C162.938 148.125 167.283 163.53 167.875 167.875M237 167.875V187.625H207.375V167.875C207.144 160.534 205.454 153.313 202.402 146.633C199.35 139.953 194.998 133.948 189.6 128.968C237 133.806 237 167.875 237 167.875ZM79 118.5H49.375V148.125H29.625V118.5H0V98.75H29.625V69.125H49.375V98.75H79V118.5Z" fill="#FAFAFA"/>
</svg>
